<svg width="32" height="29" viewBox="0 0 32 29" fill="none" xmlns="http://www.w3.org/2000/svg">
<path d="M4.5 5.5V1.5C4.5 1.2235 4.276 1 4 1H1.5C1.224 1 1 1.2235 1 1.5C1 1.7765 1.224 2 1.5 2H3.5V5.5V6V18V18.5V23C3.5 23.2765 3.724 23.5 4 23.5H7.5155C6.903 23.956 6.5 24.6795 6.5 25.5C6.5 26.8785 7.6215 28 9 28C10.3785 28 11.5 26.8785 11.5 25.5C11.5 24.6795 11.097 23.956 10.4845 23.5H21.0155C20.403 23.956 20 24.6795 20 25.5C20 26.8785 21.1215 28 22.5 28C23.8785 28 25 26.8785 25 25.5C25 24.6795 24.597 23.956 23.9845 23.5H27C27.276 23.5 27.5 23.2765 27.5 23C27.5 22.7235 27.276 22.5 27 22.5H4.5V18.5H31V5.5H4.5ZM9 27C8.173 27 7.5 26.327 7.5 25.5C7.5 24.673 8.173 24 9 24C9.827 24 10.5 24.673 10.5 25.5C10.5 26.327 9.827 27 9 27ZM22.5 27C21.673 27 21 26.327 21 25.5C21 24.673 21.673 24 22.5 24C23.327 24 24 24.673 24 25.5C24 26.327 23.327 27 22.5 27ZM4.5 10.5H30V13.5H4.5V10.5ZM30 9.5H4.5V6.5H30V9.5ZM4.5 17.5V14.5H30V17.5H4.5Z" fill="white" stroke="#FBB03B" stroke-width="2"/>
</svg>
