<svg width="62" height="56" viewBox="0 0 62 56" fill="none" xmlns="http://www.w3.org/2000/svg">
<path d="M8 10V2C8 1.447 7.552 1 7 1H2C1.448 1 1 1.447 1 2C1 2.553 1.448 3 2 3H6V10V11V35V36V45C6 45.553 6.448 46 7 46H14.031C12.806 46.912 12 48.359 12 50C12 52.757 14.243 55 17 55C19.757 55 22 52.757 22 50C22 48.359 21.194 46.912 19.969 46H41.031C39.806 46.912 39 48.359 39 50C39 52.757 41.243 55 44 55C46.757 55 49 52.757 49 50C49 48.359 48.194 46.912 46.969 46H53C53.552 46 54 45.553 54 45C54 44.447 53.552 44 53 44H8V36H61V10H8ZM17 53C15.346 53 14 51.654 14 50C14 48.346 15.346 47 17 47C18.654 47 20 48.346 20 50C20 51.654 18.654 53 17 53ZM44 53C42.346 53 41 51.654 41 50C41 48.346 42.346 47 44 47C45.654 47 47 48.346 47 50C47 51.654 45.654 53 44 53ZM8 20H59V26H8V20ZM59 18H8V12H59V18ZM8 34V28H59V34H8Z" fill="white" stroke="white" stroke-width="2"/>
</svg>
