<svg width="132" height="128" viewBox="0 0 132 128" fill="none" xmlns="http://www.w3.org/2000/svg">
<path d="M104 116H28" stroke="white" stroke-width="3" stroke-miterlimit="10"/>
<mask id="path-2-inside-1" fill="white">
<path d="M10 104V0H122V104"/>
</mask>
<path d="M10 0V-3H7V0H10ZM122 0H125V-3H122V0ZM13 104V0H7V104H13ZM10 3H122V-3H10V3ZM119 0V104H125V0H119Z" fill="white" mask="url(#path-2-inside-1)"/>
<mask id="path-4-inside-2" fill="white">
<path d="M30 128L27.29 104H16.423H13.0242H2.50151L0 128"/>
</mask>
<path d="M27.29 104L30.2711 103.663L29.9704 101H27.29V104ZM2.50151 104V101H-0.202052L-0.482325 103.689L2.50151 104ZM32.9811 127.663L30.2711 103.663L24.309 104.337L27.0189 128.337L32.9811 127.663ZM27.29 101H16.423V107H27.29V101ZM16.423 101H13.0242V107H16.423V101ZM13.0242 101H2.50151V107H13.0242V101ZM-0.482325 103.689L-2.98384 127.689L2.98384 128.311L5.48535 104.311L-0.482325 103.689Z" fill="white" mask="url(#path-4-inside-2)"/>
<mask id="path-6-inside-3" fill="white">
<path d="M132 128L129.29 104H118.423H115.024H104.502L102 128"/>
</mask>
<path d="M129.29 104L132.271 103.663L131.97 101H129.29V104ZM104.502 104V101H101.798L101.518 103.689L104.502 104ZM134.981 127.663L132.271 103.663L126.309 104.337L129.019 128.337L134.981 127.663ZM129.29 101H118.423V107H129.29V101ZM118.423 101H115.024V107H118.423V101ZM115.024 101H104.502V107H115.024V101ZM101.518 103.689L99.0162 127.689L104.984 128.311L107.485 104.311L101.518 103.689Z" fill="white" mask="url(#path-6-inside-3)"/>
<path d="M111 14H21V94H111V14Z" stroke="white" stroke-width="3" stroke-miterlimit="10"/>
<path d="M20 77H110" stroke="white" stroke-width="3" stroke-miterlimit="10"/>
<mask id="path-10-inside-4" fill="white">
<path d="M38.7693 22.5354V19.8081H36.0001V22.5354H38.7693Z"/>
</mask>
<path d="M38.7693 22.5354V19.8081H36.0001V22.5354H38.7693Z" fill="#FBB03B"/>
<path d="M38.7693 19.8081H41.7693V16.8081H38.7693V19.8081ZM38.7693 22.5354V25.5354H41.7693V22.5354H38.7693ZM36.0001 22.5354H33.0001V25.5354H36.0001V22.5354ZM36.0001 19.8081V16.8081H33.0001V19.8081H36.0001ZM35.7693 19.8081V22.5354H41.7693V19.8081H35.7693ZM38.7693 19.5354H36.0001V25.5354H38.7693V19.5354ZM39.0001 22.5354V19.8081H33.0001V22.5354H39.0001ZM36.0001 22.8081H38.7693V16.8081H36.0001V22.8081Z" fill="white" mask="url(#path-10-inside-4)"/>
<mask id="path-12-inside-5" fill="white">
<path d="M58.1538 22.5354V19.8081H55.3846V22.5354H58.1538Z"/>
</mask>
<path d="M58.1538 22.5354V19.8081H55.3846V22.5354H58.1538Z" fill="#FBB03B"/>
<path d="M58.1538 19.8081H61.1538V16.8081H58.1538V19.8081ZM58.1538 22.5354V25.5354H61.1538V22.5354H58.1538ZM55.3846 22.5354H52.3846V25.5354H55.3846V22.5354ZM55.3846 19.8081V16.8081H52.3846V19.8081H55.3846ZM55.1538 19.8081V22.5354H61.1538V19.8081H55.1538ZM58.1538 19.5354H55.3846V25.5354H58.1538V19.5354ZM58.3846 22.5354V19.8081H52.3846V22.5354H58.3846ZM55.3846 22.8081H58.1538V16.8081H55.3846V22.8081Z" fill="white" mask="url(#path-12-inside-5)"/>
<mask id="path-14-inside-6" fill="white">
<path d="M76.6154 22.5354V19.8081H73.8461V22.5354H76.6154Z"/>
</mask>
<path d="M76.6154 22.5354V19.8081H73.8461V22.5354H76.6154Z" fill="#FBB03B"/>
<path d="M76.6154 19.8081H79.6154V16.8081H76.6154V19.8081ZM76.6154 22.5354V25.5354H79.6154V22.5354H76.6154ZM73.8461 22.5354H70.8461V25.5354H73.8461V22.5354ZM73.8461 19.8081V16.8081H70.8461V19.8081H73.8461ZM73.6154 19.8081V22.5354H79.6154V19.8081H73.6154ZM76.6154 19.5354H73.8461V25.5354H76.6154V19.5354ZM76.8461 22.5354V19.8081H70.8461V22.5354H76.8461ZM73.8461 22.8081H76.6154V16.8081H73.8461V22.8081Z" fill="white" mask="url(#path-14-inside-6)"/>
<mask id="path-16-inside-7" fill="white">
<path d="M96 22.5354V19.8081H93.2308V22.5354H96Z"/>
</mask>
<path d="M96 22.5354V19.8081H93.2308V22.5354H96Z" fill="#FBB03B"/>
<path d="M96 19.8081H99V16.8081H96V19.8081ZM96 22.5354V25.5354H99V22.5354H96ZM93.2308 22.5354H90.2308V25.5354H93.2308V22.5354ZM93.2308 19.8081V16.8081H90.2308V19.8081H93.2308ZM93 19.8081V22.5354H99V19.8081H93ZM96 19.5354H93.2308V25.5354H96V19.5354ZM96.2308 22.5354V19.8081H90.2308V22.5354H96.2308ZM93.2308 22.8081H96V16.8081H93.2308V22.8081Z" fill="white" mask="url(#path-16-inside-7)"/>
<mask id="path-18-inside-8" fill="white">
<path d="M38.7693 34.3535V31.6262H36.0001V34.3535H38.7693Z"/>
</mask>
<path d="M38.7693 34.3535V31.6262H36.0001V34.3535H38.7693Z" fill="#FBB03B"/>
<path d="M38.7693 31.6262H41.7693V28.6262H38.7693V31.6262ZM38.7693 34.3535V37.3535H41.7693V34.3535H38.7693ZM36.0001 34.3535H33.0001V37.3535H36.0001V34.3535ZM36.0001 31.6262V28.6262H33.0001V31.6262H36.0001ZM35.7693 31.6262V34.3535H41.7693V31.6262H35.7693ZM38.7693 31.3535H36.0001V37.3535H38.7693V31.3535ZM39.0001 34.3535V31.6262H33.0001V34.3535H39.0001ZM36.0001 34.6262H38.7693V28.6262H36.0001V34.6262Z" fill="white" mask="url(#path-18-inside-8)"/>
<mask id="path-20-inside-9" fill="white">
<path d="M58.1538 34.3535V31.6262H55.3846V34.3535H58.1538Z"/>
</mask>
<path d="M58.1538 34.3535V31.6262H55.3846V34.3535H58.1538Z" fill="#FBB03B"/>
<path d="M58.1538 31.6262H61.1538V28.6262H58.1538V31.6262ZM58.1538 34.3535V37.3535H61.1538V34.3535H58.1538ZM55.3846 34.3535H52.3846V37.3535H55.3846V34.3535ZM55.3846 31.6262V28.6262H52.3846V31.6262H55.3846ZM55.1538 31.6262V34.3535H61.1538V31.6262H55.1538ZM58.1538 31.3535H55.3846V37.3535H58.1538V31.3535ZM58.3846 34.3535V31.6262H52.3846V34.3535H58.3846ZM55.3846 34.6262H58.1538V28.6262H55.3846V34.6262Z" fill="white" mask="url(#path-20-inside-9)"/>
<mask id="path-22-inside-10" fill="white">
<path d="M76.6154 34.3535V31.6262H73.8461V34.3535H76.6154Z"/>
</mask>
<path d="M76.6154 34.3535V31.6262H73.8461V34.3535H76.6154Z" fill="#FBB03B"/>
<path d="M76.6154 31.6262H79.6154V28.6262H76.6154V31.6262ZM76.6154 34.3535V37.3535H79.6154V34.3535H76.6154ZM73.8461 34.3535H70.8461V37.3535H73.8461V34.3535ZM73.8461 31.6262V28.6262H70.8461V31.6262H73.8461ZM73.6154 31.6262V34.3535H79.6154V31.6262H73.6154ZM76.6154 31.3535H73.8461V37.3535H76.6154V31.3535ZM76.8461 34.3535V31.6262H70.8461V34.3535H76.8461ZM73.8461 34.6262H76.6154V28.6262H73.8461V34.6262Z" fill="white" mask="url(#path-22-inside-10)"/>
<mask id="path-24-inside-11" fill="white">
<path d="M96 34.3535V31.6262H93.2308V34.3535H96Z"/>
</mask>
<path d="M96 34.3535V31.6262H93.2308V34.3535H96Z" fill="#FBB03B"/>
<path d="M96 31.6262H99V28.6262H96V31.6262ZM96 34.3535V37.3535H99V34.3535H96ZM93.2308 34.3535H90.2308V37.3535H93.2308V34.3535ZM93.2308 31.6262V28.6262H90.2308V31.6262H93.2308ZM93 31.6262V34.3535H99V31.6262H93ZM96 31.3535H93.2308V37.3535H96V31.3535ZM96.2308 34.3535V31.6262H90.2308V34.3535H96.2308ZM93.2308 34.6262H96V28.6262H93.2308V34.6262Z" fill="white" mask="url(#path-24-inside-11)"/>
<mask id="path-26-inside-12" fill="white">
<path d="M38.7693 46.1719V43.4446H36.0001V46.1719H38.7693Z"/>
</mask>
<path d="M38.7693 46.1719V43.4446H36.0001V46.1719H38.7693Z" fill="#FBB03B"/>
<path d="M38.7693 43.4446H41.7693V40.4446H38.7693V43.4446ZM38.7693 46.1719V49.1719H41.7693V46.1719H38.7693ZM36.0001 46.1719H33.0001V49.1719H36.0001V46.1719ZM36.0001 43.4446V40.4446H33.0001V43.4446H36.0001ZM35.7693 43.4446V46.1719H41.7693V43.4446H35.7693ZM38.7693 43.1719H36.0001V49.1719H38.7693V43.1719ZM39.0001 46.1719V43.4446H33.0001V46.1719H39.0001ZM36.0001 46.4446H38.7693V40.4446H36.0001V46.4446Z" fill="white" mask="url(#path-26-inside-12)"/>
<mask id="path-28-inside-13" fill="white">
<path d="M58.1538 46.1719V43.4446H55.3846V46.1719H58.1538Z"/>
</mask>
<path d="M58.1538 46.1719V43.4446H55.3846V46.1719H58.1538Z" fill="#FBB03B"/>
<path d="M58.1538 43.4446H61.1538V40.4446H58.1538V43.4446ZM58.1538 46.1719V49.1719H61.1538V46.1719H58.1538ZM55.3846 46.1719H52.3846V49.1719H55.3846V46.1719ZM55.3846 43.4446V40.4446H52.3846V43.4446H55.3846ZM55.1538 43.4446V46.1719H61.1538V43.4446H55.1538ZM58.1538 43.1719H55.3846V49.1719H58.1538V43.1719ZM58.3846 46.1719V43.4446H52.3846V46.1719H58.3846ZM55.3846 46.4446H58.1538V40.4446H55.3846V46.4446Z" fill="white" mask="url(#path-28-inside-13)"/>
<mask id="path-30-inside-14" fill="white">
<path d="M76.6154 46.1719V43.4446H73.8461V46.1719H76.6154Z"/>
</mask>
<path d="M76.6154 46.1719V43.4446H73.8461V46.1719H76.6154Z" fill="#FBB03B"/>
<path d="M76.6154 43.4446H79.6154V40.4446H76.6154V43.4446ZM76.6154 46.1719V49.1719H79.6154V46.1719H76.6154ZM73.8461 46.1719H70.8461V49.1719H73.8461V46.1719ZM73.8461 43.4446V40.4446H70.8461V43.4446H73.8461ZM73.6154 43.4446V46.1719H79.6154V43.4446H73.6154ZM76.6154 43.1719H73.8461V49.1719H76.6154V43.1719ZM76.8461 46.1719V43.4446H70.8461V46.1719H76.8461ZM73.8461 46.4446H76.6154V40.4446H73.8461V46.4446Z" fill="white" mask="url(#path-30-inside-14)"/>
<mask id="path-32-inside-15" fill="white">
<path d="M96 46.1719V43.4446H93.2308V46.1719H96Z"/>
</mask>
<path d="M96 46.1719V43.4446H93.2308V46.1719H96Z" fill="#FBB03B"/>
<path d="M96 43.4446H99V40.4446H96V43.4446ZM96 46.1719V49.1719H99V46.1719H96ZM93.2308 46.1719H90.2308V49.1719H93.2308V46.1719ZM93.2308 43.4446V40.4446H90.2308V43.4446H93.2308ZM93 43.4446V46.1719H99V43.4446H93ZM96 43.1719H93.2308V49.1719H96V43.1719ZM96.2308 46.1719V43.4446H90.2308V46.1719H96.2308ZM93.2308 46.4446H96V40.4446H93.2308V46.4446Z" fill="white" mask="url(#path-32-inside-15)"/>
<mask id="path-34-inside-16" fill="white">
<path d="M38.7693 57.99V55.2627H36.0001V57.99H38.7693Z"/>
</mask>
<path d="M38.7693 57.99V55.2627H36.0001V57.99H38.7693Z" fill="#FBB03B"/>
<path d="M38.7693 55.2627H41.7693V52.2627H38.7693V55.2627ZM38.7693 57.99V60.99H41.7693V57.99H38.7693ZM36.0001 57.99H33.0001V60.99H36.0001V57.99ZM36.0001 55.2627V52.2627H33.0001V55.2627H36.0001ZM35.7693 55.2627V57.99H41.7693V55.2627H35.7693ZM38.7693 54.99H36.0001V60.99H38.7693V54.99ZM39.0001 57.99V55.2627H33.0001V57.99H39.0001ZM36.0001 58.2627H38.7693V52.2627H36.0001V58.2627Z" fill="white" mask="url(#path-34-inside-16)"/>
<mask id="path-36-inside-17" fill="white">
<path d="M58.1538 57.99V55.2627H55.3846V57.99H58.1538Z"/>
</mask>
<path d="M58.1538 57.99V55.2627H55.3846V57.99H58.1538Z" fill="#FBB03B"/>
<path d="M58.1538 55.2627H61.1538V52.2627H58.1538V55.2627ZM58.1538 57.99V60.99H61.1538V57.99H58.1538ZM55.3846 57.99H52.3846V60.99H55.3846V57.99ZM55.3846 55.2627V52.2627H52.3846V55.2627H55.3846ZM55.1538 55.2627V57.99H61.1538V55.2627H55.1538ZM58.1538 54.99H55.3846V60.99H58.1538V54.99ZM58.3846 57.99V55.2627H52.3846V57.99H58.3846ZM55.3846 58.2627H58.1538V52.2627H55.3846V58.2627Z" fill="white" mask="url(#path-36-inside-17)"/>
<mask id="path-38-inside-18" fill="white">
<path d="M76.6154 57.99V55.2627H73.8461V57.99H76.6154Z"/>
</mask>
<path d="M76.6154 57.99V55.2627H73.8461V57.99H76.6154Z" fill="#FBB03B"/>
<path d="M76.6154 55.2627H79.6154V52.2627H76.6154V55.2627ZM76.6154 57.99V60.99H79.6154V57.99H76.6154ZM73.8461 57.99H70.8461V60.99H73.8461V57.99ZM73.8461 55.2627V52.2627H70.8461V55.2627H73.8461ZM73.6154 55.2627V57.99H79.6154V55.2627H73.6154ZM76.6154 54.99H73.8461V60.99H76.6154V54.99ZM76.8461 57.99V55.2627H70.8461V57.99H76.8461ZM73.8461 58.2627H76.6154V52.2627H73.8461V58.2627Z" fill="white" mask="url(#path-38-inside-18)"/>
<mask id="path-40-inside-19" fill="white">
<path d="M96 57.99V55.2627H93.2308V57.99H96Z"/>
</mask>
<path d="M96 57.99V55.2627H93.2308V57.99H96Z" fill="#FBB03B"/>
<path d="M96 55.2627H99V52.2627H96V55.2627ZM96 57.99V60.99H99V57.99H96ZM93.2308 57.99H90.2308V60.99H93.2308V57.99ZM93.2308 55.2627V52.2627H90.2308V55.2627H93.2308ZM93 55.2627V57.99H99V55.2627H93ZM96 54.99H93.2308V60.99H96V54.99ZM96.2308 57.99V55.2627H90.2308V57.99H96.2308ZM93.2308 58.2627H96V52.2627H93.2308V58.2627Z" fill="white" mask="url(#path-40-inside-19)"/>
<mask id="path-42-inside-20" fill="white">
<path d="M76.6154 69.8081V67.0808H73.8461V69.8081H76.6154Z"/>
</mask>
<path d="M76.6154 69.8081V67.0808H73.8461V69.8081H76.6154Z" fill="#FBB03B"/>
<path d="M76.6154 67.0808H79.6154V64.0808H76.6154V67.0808ZM76.6154 69.8081V72.8081H79.6154V69.8081H76.6154ZM73.8461 69.8081H70.8461V72.8081H73.8461V69.8081ZM73.8461 67.0808V64.0808H70.8461V67.0808H73.8461ZM73.6154 67.0808V69.8081H79.6154V67.0808H73.6154ZM76.6154 66.8081H73.8461V72.8081H76.6154V66.8081ZM76.8461 69.8081V67.0808H70.8461V69.8081H76.8461ZM73.8461 70.0808H76.6154V64.0808H73.8461V70.0808Z" fill="white" mask="url(#path-42-inside-20)"/>
<mask id="path-44-inside-21" fill="white">
<path d="M38.7693 69.8081V67.0808H36.0001V69.8081H38.7693Z"/>
</mask>
<path d="M38.7693 69.8081V67.0808H36.0001V69.8081H38.7693Z" fill="#FBB03B"/>
<path d="M38.7693 67.0808H41.7693V64.0808H38.7693V67.0808ZM38.7693 69.8081V72.8081H41.7693V69.8081H38.7693ZM36.0001 69.8081H33.0001V72.8081H36.0001V69.8081ZM36.0001 67.0808V64.0808H33.0001V67.0808H36.0001ZM35.7693 67.0808V69.8081H41.7693V67.0808H35.7693ZM38.7693 66.8081H36.0001V72.8081H38.7693V66.8081ZM39.0001 69.8081V67.0808H33.0001V69.8081H39.0001ZM36.0001 70.0808H38.7693V64.0808H36.0001V70.0808Z" fill="white" mask="url(#path-44-inside-21)"/>
<mask id="path-46-inside-22" fill="white">
<path d="M58.1538 69.8081V67.0808H55.3846V69.8081H58.1538Z"/>
</mask>
<path d="M58.1538 69.8081V67.0808H55.3846V69.8081H58.1538Z" fill="#FBB03B"/>
<path d="M58.1538 67.0808H61.1538V64.0808H58.1538V67.0808ZM58.1538 69.8081V72.8081H61.1538V69.8081H58.1538ZM55.3846 69.8081H52.3846V72.8081H55.3846V69.8081ZM55.3846 67.0808V64.0808H52.3846V67.0808H55.3846ZM55.1538 67.0808V69.8081H61.1538V67.0808H55.1538ZM58.1538 66.8081H55.3846V72.8081H58.1538V66.8081ZM58.3846 69.8081V67.0808H52.3846V69.8081H58.3846ZM55.3846 70.0808H58.1538V64.0808H55.3846V70.0808Z" fill="white" mask="url(#path-46-inside-22)"/>
<mask id="path-48-inside-23" fill="white">
<path d="M96 69.8081V67.0808H93.2308V69.8081H96Z"/>
</mask>
<path d="M96 69.8081V67.0808H93.2308V69.8081H96Z" fill="#FBB03B"/>
<path d="M96 67.0808H99V64.0808H96V67.0808ZM96 69.8081V72.8081H99V69.8081H96ZM93.2308 69.8081H90.2308V72.8081H93.2308V69.8081ZM93.2308 67.0808V64.0808H90.2308V67.0808H93.2308ZM93 67.0808V69.8081H99V67.0808H93ZM96 66.8081H93.2308V72.8081H96V66.8081ZM96.2308 69.8081V67.0808H90.2308V69.8081H96.2308ZM93.2308 70.0808H96V64.0808H93.2308V70.0808Z" fill="white" mask="url(#path-48-inside-23)"/>
<path d="M25.9954 104.932L25.9364 104.5H25.5H12.5V2.5H119.5V104.5H106.5H106.064L106.005 104.932L104.564 115.5H27.4364L25.9954 104.932ZM112 14V13.5H111.5H20.5H20V14V93.5897V94.0897H20.5H111.5H112V93.5897V14Z" fill="white" stroke="white"/>
</svg>
