<svg width="126" height="130" viewBox="0 0 126 130" fill="none" xmlns="http://www.w3.org/2000/svg">
<path d="M49.6908 13.5V18.5H40.6908V13.5H49.6908Z" stroke="white" stroke-width="3" stroke-miterlimit="10"/>
<path d="M47.1908 25V19" stroke="white" stroke-width="3" stroke-miterlimit="10"/>
<path d="M43.1908 19V25" stroke="white" stroke-width="3" stroke-miterlimit="10"/>
<path d="M87.6908 13.5V18.5H78.6908V13.5H87.6908Z" stroke="white" stroke-width="3" stroke-miterlimit="10"/>
<path d="M85.1908 25V19" stroke="white" stroke-width="3" stroke-miterlimit="10"/>
<path d="M81.1908 19V25" stroke="white" stroke-width="3" stroke-miterlimit="10"/>
<path d="M36.6908 63.5V68.5H27.6908V63.5H36.6908Z" stroke="white" stroke-width="3" stroke-miterlimit="10"/>
<path d="M34.1908 75V69" stroke="white" stroke-width="3" stroke-miterlimit="10"/>
<path d="M30.1908 69V75" stroke="white" stroke-width="3" stroke-miterlimit="10"/>
<path d="M21.6908 63.5V68.5H12.6908L12.6908 63.5H21.6908Z" stroke="white" stroke-width="3" stroke-miterlimit="10"/>
<path d="M19.1908 75V69" stroke="white" stroke-width="3" stroke-miterlimit="10"/>
<path d="M15.1908 69V75" stroke="white" stroke-width="3" stroke-miterlimit="10"/>
<path d="M116.691 63.5V68.5H107.691V63.5H116.691Z" stroke="white" stroke-width="3" stroke-miterlimit="10"/>
<path d="M114.191 75V69" stroke="white" stroke-width="3" stroke-miterlimit="10"/>
<path d="M110.191 69V75" stroke="white" stroke-width="3" stroke-miterlimit="10"/>
<path d="M101.691 63.5V68.5H92.6908V63.5H101.691Z" stroke="white" stroke-width="3" stroke-miterlimit="10"/>
<path d="M99.1908 75V69" stroke="white" stroke-width="3" stroke-miterlimit="10"/>
<path d="M95.1908 69V75" stroke="white" stroke-width="3" stroke-miterlimit="10"/>
<path d="M60.1908 62H68.1908V25H60.1908L60.1908 62Z" stroke="white" stroke-width="3" stroke-miterlimit="10"/>
<line x1="38.1908" y1="26" x2="90.1908" y2="26" stroke="white" stroke-width="6"/>
<line x1="9.1908" y1="76" x2="119.191" y2="76" stroke="white" stroke-width="6"/>
<path d="M51.1908 55H60.1908V62H68.1908V55H77.1908V75H51.1908V55Z" fill="white" stroke="white" stroke-width="3"/>
<path d="M77.1908 130V76H51.1908V130" stroke="white" stroke-width="3"/>
<line x1="43.7038" y1="18.4095" x2="1.41766" y2="33.8004" stroke="white" stroke-width="3"/>
<line x1="87.7038" y1="1.40954" x2="50.1161" y2="15.0903" stroke="white" stroke-width="3"/>
<line x1="124.704" y1="1.40954" x2="88.0558" y2="14.7483" stroke="white" stroke-width="3"/>
<line x1="28.7038" y1="68.4095" x2="0.513048" y2="78.6701" stroke="white" stroke-width="3"/>
<line x1="79.7038" y1="19.4095" x2="0.769646" y2="48.1392" stroke="white" stroke-width="3"/>
<line x1="124.704" y1="33.4095" x2="37.3124" y2="65.2174" stroke="white" stroke-width="3"/>
<line x1="92.7038" y1="68.4095" x2="0.61395" y2="101.928" stroke="white" stroke-width="3"/>
<line x1="124.704" y1="56.4095" x2="101.212" y2="64.96" stroke="white" stroke-width="3"/>
<rect x="52.5" y="77.5" width="23" height="51" fill="white" stroke="white" stroke-width="3"/>
</svg>
