<svg width="124" height="131" viewBox="0 0 124 131" fill="none" xmlns="http://www.w3.org/2000/svg">
<path d="M37.3866 17.5507L37.3862 17.5506L37.3859 17.5505L37.3859 17.5505L35.5 17.048V19V129.5H29.5V6.93752C29.8647 7.02851 30.2775 7.12989 30.7342 7.2397C32.7023 7.71281 35.4903 8.343 38.7771 8.97317C45.3368 10.2308 53.9425 11.5 62 11.5C70.0575 11.5 78.6632 10.2308 85.2229 8.97317C88.5097 8.343 91.2977 7.71281 93.2658 7.2397C93.7225 7.12989 94.1353 7.02851 94.5 6.93752V129.5H88.5V19V17.048L86.6141 17.5505L86.6141 17.5505L86.6138 17.5506L86.6134 17.5507L86.609 17.5518L86.588 17.5573L86.4981 17.5806C86.4172 17.6013 86.2945 17.6323 86.1323 17.672C85.8079 17.7515 85.3254 17.8662 84.7019 18.0042C83.4546 18.2804 81.6445 18.6501 79.4081 19.0201C74.9316 19.7609 68.7666 20.5 62 20.5C55.2334 20.5 49.0684 19.7609 44.5919 19.0201C42.3555 18.6501 40.5454 18.2804 39.2981 18.0042C38.6746 17.8662 38.1921 17.7515 37.8677 17.672C37.7055 17.6323 37.5828 17.6013 37.5019 17.5806L37.412 17.5573L37.391 17.5518L37.3866 17.5507Z" stroke="white" stroke-width="3" stroke-miterlimit="10"/>
<path d="M67.9999 0V118.001" stroke="white" stroke-width="3" stroke-miterlimit="10"/>
<path d="M56 118.001V0" stroke="white" stroke-width="3" stroke-miterlimit="10"/>
<path d="M56 25.1787H68" stroke="white" stroke-width="3" stroke-miterlimit="10"/>
<path d="M56 32.9829H68" stroke="white" stroke-width="3" stroke-miterlimit="10"/>
<path d="M56 40.7874H68" stroke="white" stroke-width="3" stroke-miterlimit="10"/>
<path d="M56 48.5918H68" stroke="white" stroke-width="3" stroke-miterlimit="10"/>
<path d="M56 56.396H68" stroke="white" stroke-width="3" stroke-miterlimit="10"/>
<path d="M56 64.2004H68" stroke="white" stroke-width="3" stroke-miterlimit="10"/>
<path d="M56 71.0291H68" stroke="white" stroke-width="3" stroke-miterlimit="10"/>
<path d="M56 78.8335H68" stroke="white" stroke-width="3" stroke-miterlimit="10"/>
<path d="M56 86.6377H68" stroke="white" stroke-width="3" stroke-miterlimit="10"/>
<path d="M56 94.4421H68" stroke="white" stroke-width="3" stroke-miterlimit="10"/>
<path d="M56 102.246H68" stroke="white" stroke-width="3" stroke-miterlimit="10"/>
<path d="M56 110.051H68" stroke="white" stroke-width="3" stroke-miterlimit="10"/>
<path d="M30 86L0 86" stroke="white" stroke-width="3" stroke-miterlimit="10"/>
<path d="M0 116H30" stroke="white" stroke-width="3" stroke-miterlimit="10"/>
<path d="M16 12H30" stroke="white" stroke-width="3" stroke-miterlimit="10"/>
<path d="M94 86H124" stroke="white" stroke-width="3" stroke-miterlimit="10"/>
<path d="M124 116H94" stroke="white" stroke-width="3" stroke-miterlimit="10"/>
<path d="M108 12H94" stroke="white" stroke-width="3" stroke-miterlimit="10"/>
</svg>
