<svg width="89" height="98" viewBox="0 0 89 98" fill="none" xmlns="http://www.w3.org/2000/svg">
<line x1="1.5" y1="52.5" x2="20.5" y2="52.5" stroke="white" stroke-width="3" stroke-linecap="square"/>
<line x1="20.5" y1="35.5" x2="39.5" y2="35.5" stroke="white" stroke-width="3" stroke-linecap="square"/>
<line x1="20.5" y1="49.5" x2="20.5" y2="38.5" stroke="white" stroke-width="3" stroke-linecap="square"/>
<line x1="1.5" y1="66.5" x2="1.5" y2="55.5" stroke="white" stroke-width="3" stroke-linecap="square"/>
<line x1="39.5" y1="32.5" x2="39.5" y2="21.5" stroke="white" stroke-width="3" stroke-linecap="square"/>
<line x1="58.5" y1="15.5" x2="58.5" y2="4.5" stroke="white" stroke-width="3" stroke-linecap="square"/>
<line x1="39.5" y1="18.5" x2="58.5" y2="18.5" stroke="white" stroke-width="3" stroke-linecap="square"/>
<line x1="58.5" y1="1.5" x2="77.5" y2="1.5" stroke="white" stroke-width="3" stroke-linecap="square"/>
<line x1="13.5" y1="82.5" x2="32.5" y2="82.5" stroke="white" stroke-width="3" stroke-linecap="square"/>
<line x1="32.5" y1="65.5" x2="51.5" y2="65.5" stroke="white" stroke-width="3" stroke-linecap="square"/>
<line x1="32.5" y1="79.5" x2="32.5" y2="68.5" stroke="white" stroke-width="3" stroke-linecap="square"/>
<line x1="13.5" y1="96.5" x2="13.5" y2="85.5" stroke="white" stroke-width="3" stroke-linecap="square"/>
<line x1="51.5" y1="62.5" x2="51.5" y2="51.5" stroke="white" stroke-width="3" stroke-linecap="square"/>
<line x1="70.5" y1="45.5" x2="70.5" y2="34.5" stroke="white" stroke-width="3" stroke-linecap="square"/>
<line x1="51.5" y1="48.5" x2="70.5" y2="48.5" stroke="white" stroke-width="3" stroke-linecap="square"/>
<line x1="70.5" y1="31.5" x2="87.5" y2="31.5" stroke="white" stroke-width="3" stroke-linecap="square"/>
<line x1="39.9498" y1="37.8356" x2="50.8356" y2="65.0502" stroke="white" stroke-width="3" stroke-linecap="square"/>
<line x1="20.9498" y1="37.8356" x2="31.8356" y2="65.0502" stroke="white" stroke-width="3" stroke-linecap="square"/>
<line x1="20.9498" y1="54.8356" x2="31.8356" y2="82.0502" stroke="white" stroke-width="3" stroke-linecap="square"/>
<line x1="1.9498" y1="54.8356" x2="12.8356" y2="82.0502" stroke="white" stroke-width="3" stroke-linecap="square"/>
<line x1="1.9498" y1="54.8356" x2="12.8356" y2="82.0502" stroke="white" stroke-width="3" stroke-linecap="square"/>
<line x1="39.9498" y1="20.8356" x2="50.8356" y2="48.0502" stroke="white" stroke-width="3" stroke-linecap="square"/>
<line x1="58.9498" y1="20.8356" x2="69.8356" y2="48.0502" stroke="white" stroke-width="3" stroke-linecap="square"/>
<line x1="58.9498" y1="3.83563" x2="69.8356" y2="31.0502" stroke="white" stroke-width="3" stroke-linecap="square"/>
</svg>
