<svg width="80" height="300" viewBox="0 0 80 300" fill="none" xmlns="http://www.w3.org/2000/svg">
<rect y="0.585938" width="80" height="298.828" fill="#4D4D4D"/>
<path d="M26.4062 203.549L44.2129 197.836L26.4062 192.141V184.02H52V190.207H46.0234L33.7891 189.609L52 195.797V199.875L33.7715 206.08L46.0234 205.482H52V211.652H26.4062V203.549ZM42.3145 180.102C40.416 180.102 38.7285 179.732 37.252 178.994C35.7637 178.256 34.6211 177.195 33.8242 175.812C33.0273 174.43 32.6289 172.807 32.6289 170.943C32.6289 168.096 33.5137 165.852 35.2832 164.211C37.041 162.57 39.4375 161.75 42.4727 161.75H42.6836C45.6484 161.75 48.0039 162.576 49.75 164.229C51.4844 165.869 52.3516 168.096 52.3516 170.908C52.3516 173.615 51.543 175.789 49.9258 177.43C48.2969 179.07 46.0938 179.955 43.3164 180.084L42.3145 180.102ZM42.6836 174.178C44.4414 174.178 45.7305 173.902 46.5508 173.352C47.3711 172.801 47.7812 171.986 47.7812 170.908C47.7812 168.799 46.1582 167.721 42.9121 167.674H42.3145C38.9043 167.674 37.1992 168.764 37.1992 170.943C37.1992 172.924 38.6699 173.996 41.6113 174.16L42.6836 174.178ZM52 141.203V147.145H44.9512V152.33H52L52 158.254H32.9805V152.33H40.3984V147.145H32.9805V141.203H52ZM37.5156 120.305V126.299H52V132.258H37.5156V138.164H32.9805V120.305H37.5156ZM52 106.648C51.6133 106.859 51.0449 107.047 50.2949 107.211C51.666 108.301 52.3516 109.824 52.3516 111.781C52.3516 113.574 51.8125 115.098 50.7344 116.352C49.6445 117.605 48.2793 118.232 46.6387 118.232C44.5762 118.232 43.0176 117.471 41.9629 115.947C40.9082 114.424 40.3809 112.209 40.3809 109.303V107.475H39.3789C37.6328 107.475 36.7598 108.23 36.7598 109.742C36.7598 111.148 37.4512 111.852 38.834 111.852V117.775C36.9941 117.775 35.5 116.996 34.3516 115.438C33.2031 113.867 32.6289 111.869 32.6289 109.443C32.6289 107.018 33.2207 105.102 34.4043 103.695C35.5879 102.289 37.2109 101.568 39.2734 101.533H47.6934C49.4395 101.51 50.7754 101.24 51.7012 100.725H52V106.648ZM48.1328 110.357C48.1328 109.619 47.9746 109.01 47.6582 108.529C47.3418 108.037 46.9844 107.686 46.5859 107.475H43.5449V109.197C43.5449 111.26 44.4707 112.291 46.3223 112.291C46.8613 112.291 47.3008 112.109 47.6406 111.746C47.9688 111.383 48.1328 110.92 48.1328 110.357ZM45.3555 77.3652V79.6152H52V85.5391H45.3555V87.7363L52 90.9883V98.0195L41.8223 92.3594L32.9805 98.248V90.8477L39.8184 87.2441V85.5391H32.9805V79.6152H39.8184V77.8574L32.9805 74.2363V66.8359L41.8574 72.7598L41.7695 72.584L52 66.8887V74.1309L45.3555 77.3652Z" fill="#FBB03B"/>
<rect x="28" y="228.586" width="24" height="22.2103" stroke="#FBB03B" stroke-width="2"/>
<rect x="37.6362" y="237.108" width="5.65217" height="5.26311" fill="#FBB03B"/>
<path d="M41.5004 251.797C41.4781 252.972 41.3276 253.9 41.0488 254.581C40.77 255.263 40.2013 256.018 39.3427 256.847L37.1515 258.847C36.2148 259.785 35.7465 260.792 35.7465 261.869C35.7465 262.905 36.0531 263.715 36.6664 264.298C37.2797 264.89 38.1718 265.186 39.3427 265.186C40.4801 265.186 41.3945 264.92 42.0858 264.387C42.7772 263.853 43.1229 263.137 43.1229 262.239L46.2173 262.239C46.195 263.839 45.5538 265.127 44.2937 266.105C43.0225 267.092 41.3722 267.586 39.3427 267.586C37.2351 267.586 35.5959 267.082 34.4251 266.075C33.2431 265.078 32.6521 263.705 32.6521 261.957C32.6521 260.229 33.5553 258.526 35.3618 256.847L37.185 255.248C37.999 254.448 38.406 253.298 38.406 251.797L41.5004 251.797Z" fill="#FBB03B"/>
</svg>
