<svg width="80" height="301" viewBox="0 0 80 301" fill="none" xmlns="http://www.w3.org/2000/svg">
<rect width="80" height="300.586" fill="#FBB03B"/>
<path d="M41.875 210.014V212.932H52V219.102H26.4062V212.932H36.3027V210.559L26.4062 205.637V198.166L38.2188 205.197L52 197.287V204.582L41.875 210.014ZM52 184.316C51.6133 184.527 51.0449 184.715 50.2949 184.879C51.666 185.969 52.3516 187.492 52.3516 189.449C52.3516 191.242 51.8125 192.766 50.7344 194.02C49.6445 195.273 48.2793 195.9 46.6387 195.9C44.5762 195.9 43.0176 195.139 41.9629 193.615C40.9082 192.092 40.3809 189.877 40.3809 186.971V185.143H39.3789C37.6328 185.143 36.7598 185.898 36.7598 187.41C36.7598 188.816 37.4512 189.52 38.834 189.52V195.443C36.9941 195.443 35.5 194.664 34.3516 193.105C33.2031 191.535 32.6289 189.537 32.6289 187.111C32.6289 184.686 33.2207 182.77 34.4043 181.363C35.5879 179.957 37.2109 179.236 39.2734 179.201H47.6934C49.4395 179.178 50.7754 178.908 51.7012 178.393H52V184.316ZM48.1328 188.025C48.1328 187.287 47.9746 186.678 47.6582 186.197C47.3418 185.705 46.9844 185.354 46.5859 185.143H43.5449V186.865C43.5449 188.928 44.4707 189.959 46.3223 189.959C46.8613 189.959 47.3008 189.777 47.6406 189.414C47.9688 189.051 48.1328 188.588 48.1328 188.025ZM37.5156 158.531V164.525H52V170.484H37.5156V176.391H32.9805V158.531H37.5156ZM52 144.875C51.6133 145.086 51.0449 145.273 50.2949 145.438C51.666 146.527 52.3516 148.051 52.3516 150.008C52.3516 151.801 51.8125 153.324 50.7344 154.578C49.6445 155.832 48.2793 156.459 46.6387 156.459C44.5762 156.459 43.0176 155.697 41.9629 154.174C40.9082 152.65 40.3809 150.436 40.3809 147.529V145.701H39.3789C37.6328 145.701 36.7598 146.457 36.7598 147.969C36.7598 149.375 37.4512 150.078 38.834 150.078V156.002C36.9941 156.002 35.5 155.223 34.3516 153.664C33.2031 152.094 32.6289 150.096 32.6289 147.67C32.6289 145.244 33.2207 143.328 34.4043 141.922C35.5879 140.516 37.2109 139.795 39.2734 139.76H47.6934C49.4395 139.736 50.7754 139.467 51.7012 138.951H52V144.875ZM48.1328 148.584C48.1328 147.846 47.9746 147.236 47.6582 146.756C47.3418 146.264 46.9844 145.912 46.5859 145.701H43.5449V147.424C43.5449 149.486 44.4707 150.518 46.3223 150.518C46.8613 150.518 47.3008 150.336 47.6406 149.973C47.9688 149.609 48.1328 149.146 48.1328 148.584ZM32.9805 118.475H52V124.398H37.5508V127.949L43.3691 128.266C46.252 128.488 48.4082 129.139 49.8379 130.217C51.2676 131.295 51.9883 132.895 52 135.016V136.879L47.4648 136.949L47.3945 136.334C47.3008 135.549 46.7793 134.969 45.8301 134.594C44.8691 134.207 43.4219 133.961 41.4883 133.855L32.9805 133.486V118.475ZM42.3145 114.996C40.416 114.996 38.7285 114.627 37.252 113.889C35.7637 113.15 34.6211 112.09 33.8242 110.707C33.0273 109.324 32.6289 107.701 32.6289 105.838C32.6289 102.99 33.5137 100.746 35.2832 99.1055C37.041 97.4648 39.4375 96.6445 42.4727 96.6445H42.6836C45.6484 96.6445 48.0039 97.4707 49.75 99.123C51.4844 100.764 52.3516 102.99 52.3516 105.803C52.3516 108.51 51.543 110.684 49.9258 112.324C48.2969 113.965 46.0938 114.85 43.3164 114.979L42.3145 114.996ZM42.6836 109.072C44.4414 109.072 45.7305 108.797 46.5508 108.246C47.3711 107.695 47.7813 106.881 47.7813 105.803C47.7813 103.693 46.1582 102.615 42.9121 102.568H42.3145C38.9043 102.568 37.1992 103.658 37.1992 105.838C37.1992 107.818 38.6699 108.891 41.6113 109.055L42.6836 109.072ZM37.5508 79.7188V87.207H52V93.1484H32.9805V79.7188H37.5508Z" fill="#4D4D4D"/>
<rect x="28" y="236" width="5.09087" height="5.09087" stroke="#4D4D4D" stroke-width="2"/>
<rect x="37.4548" y="236" width="5.09087" height="5.09087" stroke="#4D4D4D" stroke-width="2"/>
<rect x="46.9089" y="236" width="5.09087" height="5.09087" stroke="#4D4D4D" stroke-width="2"/>
<rect x="28" y="245.455" width="5.09087" height="5.09087" stroke="#4D4D4D" stroke-width="2"/>
<rect x="37.4548" y="245.455" width="5.09087" height="5.09087" stroke="#4D4D4D" stroke-width="2"/>
<rect x="46.9089" y="245.455" width="5.09087" height="5.09087" stroke="#4D4D4D" stroke-width="2"/>
<rect x="28" y="254.909" width="5.09087" height="5.09087" stroke="#4D4D4D" stroke-width="2"/>
<rect x="37.4548" y="254.909" width="5.09087" height="5.09087" stroke="#4D4D4D" stroke-width="2"/>
<rect x="46.9089" y="254.909" width="5.09087" height="5.09087" stroke="#4D4D4D" stroke-width="2"/>
</svg>
