<svg width="512" height="512" viewBox="0 0 512 512" fill="none" xmlns="http://www.w3.org/2000/svg">
<path d="M200.592 444.239C200.59 442.969 200.425 441.705 200.104 440.477C193.689 415.983 166.913 404.018 155.291 399.899C154.915 399.672 154.542 399.443 154.143 399.249L136.854 390.819L136.851 389.271C138.596 387.929 140.27 386.473 141.849 384.887C151.204 375.488 156.339 363.01 156.308 349.75L156.245 322.821C156.214 309.561 151.021 297.106 141.623 287.751C132.253 278.425 119.821 273.292 106.605 273.292C106.565 273.292 106.525 273.292 106.485 273.292L93.6343 273.322C80.3743 273.353 67.9193 278.546 58.5643 287.944C49.2093 297.343 44.0743 309.821 44.1053 323.081L44.1683 350.01C44.2063 366.077 51.9153 380.359 63.8083 389.411L63.8123 390.988L46.5633 399.5C46.1653 399.696 45.7933 399.927 45.4183 400.155C33.8173 404.329 7.09626 416.418 0.795261 440.942C0.479261 442.171 0.321261 443.436 0.324261 444.705L0.447261 497.054C0.467261 505.316 7.16926 512 15.4273 512C15.4393 512 15.4513 512 15.4633 512L185.769 511.602C189.742 511.593 193.549 510.005 196.352 507.19C199.155 504.374 200.724 500.559 200.715 496.586L200.592 444.239ZM79.7993 309.08C83.5073 305.354 88.4463 303.295 93.7023 303.282L106.553 303.252C106.569 303.252 106.584 303.252 106.6 303.252C111.839 303.252 116.769 305.286 120.483 308.984C124.209 312.692 126.268 317.631 126.281 322.887L126.344 349.816C126.356 355.073 124.321 360.02 120.612 363.746C116.903 367.472 111.965 369.531 106.709 369.544L93.8583 369.574C93.8423 369.574 93.8273 369.574 93.8113 369.574C88.5723 369.574 83.6423 367.54 79.9283 363.842C76.2023 360.134 74.1433 355.195 74.1303 349.939L74.0673 323.01C74.0563 317.753 76.0913 312.807 79.7993 309.08ZM93.7953 399.538C93.8003 399.538 93.8053 399.538 93.8113 399.538C93.8493 399.538 93.8913 399.538 93.9293 399.538L106.78 399.508C106.825 399.508 106.869 399.505 106.914 399.504L106.916 400.225C106.929 405.941 110.194 411.15 115.33 413.655L120.972 416.407L100.437 434.768L79.8163 416.503L85.4453 413.725C90.5703 411.195 93.8093 405.971 93.7963 400.255L93.7953 399.538ZM30.3743 482.002L30.2923 446.943C33.0653 439.975 42.4323 434.072 50.3863 430.461L90.5493 466.036C93.3843 468.548 96.9333 469.803 100.482 469.802C104.053 469.802 107.625 468.531 110.467 465.989L150.468 430.222C158.382 433.781 167.826 439.668 170.634 446.616L170.716 481.674L30.3743 482.002Z" fill="#398C6D"/>
<path d="M511.554 443.511C511.551 442.242 511.387 440.978 511.066 439.751C504.651 415.257 477.875 403.292 466.253 399.173C465.877 398.946 465.504 398.717 465.105 398.523L447.816 390.093L447.812 388.514C459.662 379.407 467.306 365.089 467.268 349.023L467.205 322.094C467.141 294.759 444.884 272.567 417.563 272.567C417.524 272.567 417.483 272.567 417.445 272.567L404.595 272.597C391.335 272.628 378.88 277.82 369.525 287.219C360.171 296.617 355.035 309.096 355.066 322.356L355.129 349.285C355.16 362.545 360.352 375 369.751 384.355C371.337 385.934 373.018 387.382 374.769 388.716L374.772 390.263L357.523 398.774C357.125 398.971 356.752 399.202 356.377 399.43C344.775 403.604 318.056 415.694 311.756 440.216C311.44 441.445 311.282 442.71 311.285 443.979L311.408 496.328C311.428 504.59 318.13 511.274 326.388 511.274C326.4 511.274 326.412 511.274 326.424 511.274L496.73 510.876C500.703 510.867 504.51 509.279 507.313 506.464C510.116 503.648 511.685 499.833 511.677 495.86L511.554 443.511ZM390.761 308.353C394.469 304.628 399.407 302.568 404.664 302.556L417.515 302.526C417.531 302.526 417.546 302.526 417.562 302.526C422.801 302.526 427.73 304.56 431.444 308.258C435.17 311.966 437.229 316.904 437.242 322.161L437.305 349.09C437.317 354.347 435.282 359.294 431.573 363.02C427.864 366.746 422.926 368.805 417.67 368.818L404.819 368.848C404.803 368.848 404.788 368.848 404.772 368.848C399.533 368.848 394.603 366.814 390.889 363.116C387.164 359.408 385.104 354.47 385.092 349.213L385.029 322.284C385.017 317.027 387.053 312.079 390.761 308.353ZM404.756 398.81C404.761 398.81 404.765 398.81 404.769 398.81C404.809 398.81 404.85 398.81 404.889 398.81L417.74 398.78C417.785 398.78 417.829 398.777 417.874 398.776L417.876 399.497C417.889 405.213 421.154 410.422 426.29 412.927L431.932 415.678L411.397 434.039L390.777 415.774L396.406 412.997C401.531 410.467 404.77 405.243 404.757 399.527L404.756 398.81ZM341.336 481.276L341.254 446.216C344.027 439.248 353.394 433.346 361.349 429.735L401.512 465.31C404.347 467.822 407.896 469.077 411.445 469.076C415.016 469.076 418.588 467.805 421.43 465.263L461.431 429.496C469.345 433.056 478.789 438.942 481.597 445.89L481.679 480.948L341.336 481.276Z" fill="#398C6D"/>
<path d="M459.112 114.186C459.04 83.596 446.987 54.868 425.172 33.298C403.449 11.818 374.636 0 344.009 0C343.917 0 343.823 0 343.731 0L161.494 0.426C98.0203 0.574 46.5013 52.039 46.6473 115.15C46.7643 165.23 79.7033 209.01 126.691 223.92L123.789 257.31C123.301 262.934 126.015 268.355 130.81 271.334C133.23 272.836 135.971 273.588 138.714 273.588C141.408 273.588 144.102 272.862 146.493 271.41L215.951 229.211L290.346 229.037L360 270.912C364.837 273.82 370.9 273.762 375.681 270.761C380.463 267.76 383.152 262.326 382.636 256.705L379.578 223.329C426.495 208.199 459.228 164.265 459.112 114.186ZM360.616 197.336C353.079 198.814 347.88 205.755 348.581 213.404L350.102 230.003L302.205 201.208C299.864 199.801 297.19 199.077 294.451 199.066L211.705 199.26C208.973 199.266 206.295 200.019 203.961 201.437L156.199 230.456L157.642 213.85C158.307 206.198 153.077 199.281 145.532 197.838C105.689 190.217 76.7043 155.413 76.6103 115.081C76.5013 68.492 114.612 30.499 161.565 30.389L343.801 29.963C343.87 29.963 343.938 29.963 344.008 29.963C366.693 29.963 388.031 38.71 404.106 54.605C420.204 70.523 429.097 91.707 429.15 114.258C429.244 154.588 400.422 189.528 360.616 197.336Z" fill="#398C6D"/>
<path d="M325.791 75.083C325.779 75.083 325.767 75.083 325.755 75.083L179.821 75.424C171.548 75.444 164.856 82.166 164.875 90.44C164.895 98.701 171.597 105.386 179.855 105.386C179.867 105.386 179.879 105.386 179.891 105.386L325.825 105.045C334.099 105.025 340.79 98.303 340.771 90.029C340.751 81.767 334.048 75.083 325.791 75.083Z" fill="#398C6D"/>
<path d="M326.267 128.046C326.259 128.046 326.249 128.046 326.241 128.046L179.953 128.298C171.68 128.312 164.984 135.031 164.998 143.305C165.012 151.571 171.716 158.26 179.979 158.26C179.987 158.26 179.997 158.26 180.005 158.26L326.293 158.008C334.566 157.994 341.262 151.274 341.248 143.001C341.234 134.736 334.529 128.046 326.267 128.046Z" fill="#398C6D"/>
</svg>
