<svg width="512" height="512" viewBox="0 0 512 512" fill="none" xmlns="http://www.w3.org/2000/svg">
<path d="M444.13 345.984L394.051 333.961L367.142 290.048L340.232 333.961L290.152 345.984L323.601 385.146L319.559 436.49L367.142 416.781L414.723 436.49L410.683 385.146L444.13 345.984ZM380.975 390.039L367.142 384.309L353.309 390.039L354.484 375.111L344.759 363.726L359.318 360.23L367.142 347.463L374.965 360.23L389.525 363.726L379.8 375.111L380.975 390.039Z" fill="#398C6D"/>
<path d="M256 1.28491L0 93.4889V416.571L255.99 508.771L298.753 493.431C319.163 504.452 342.503 510.715 367.28 510.715C446.995 510.715 511.86 445.922 511.981 366.235L512 93.4889L256 1.28491ZM256 33.1719L452.831 104.065L380.531 130.234L183.608 59.2459L256 33.1719ZM139.356 75.1829L336.389 146.212L256 175.311L59.169 104.065L139.356 75.1829ZM256.011 476.893L30 395.489V125.412L241 201.785V295.423C229.275 316.317 222.575 340.394 222.575 366.01C222.575 407.936 240.504 445.748 269.091 472.199L256.011 476.893ZM367.28 480.715C304.031 480.715 252.575 429.259 252.575 366.011C252.575 302.762 304.031 251.306 367.28 251.306C430.528 251.306 481.984 302.762 481.984 366.011C481.984 429.259 430.528 480.715 367.28 480.715ZM482 277.923C455.522 243.52 413.95 221.306 367.28 221.306C330.341 221.306 296.597 235.225 271 258.085V201.785L482 125.412V277.923Z" fill="#398C6D"/>
</svg>
