<svg width="42" height="38" viewBox="0 0 42 38" fill="none" xmlns="http://www.w3.org/2000/svg">
<path d="M5.66667 7V1.66667C5.66667 1.298 5.368 1 5 1H1.66667C1.29867 1 1 1.298 1 1.66667C1 2.03533 1.29867 2.33333 1.66667 2.33333H4.33333V7V7.66667V23.6667V24.3333V30.3333C4.33333 30.702 4.632 31 5 31H9.68733C8.87067 31.608 8.33333 32.5727 8.33333 33.6667C8.33333 35.5047 9.82867 37 11.6667 37C13.5047 37 15 35.5047 15 33.6667C15 32.5727 14.4627 31.608 13.646 31H27.6873C26.8707 31.608 26.3333 32.5727 26.3333 33.6667C26.3333 35.5047 27.8287 37 29.6667 37C31.5047 37 33 35.5047 33 33.6667C33 32.5727 32.4627 31.608 31.646 31H35.6667C36.0347 31 36.3333 30.702 36.3333 30.3333C36.3333 29.9647 36.0347 29.6667 35.6667 29.6667H5.66667V24.3333H41V7H5.66667ZM11.6667 35.6667C10.564 35.6667 9.66667 34.7693 9.66667 33.6667C9.66667 32.564 10.564 31.6667 11.6667 31.6667C12.7693 31.6667 13.6667 32.564 13.6667 33.6667C13.6667 34.7693 12.7693 35.6667 11.6667 35.6667ZM29.6667 35.6667C28.564 35.6667 27.6667 34.7693 27.6667 33.6667C27.6667 32.564 28.564 31.6667 29.6667 31.6667C30.7693 31.6667 31.6667 32.564 31.6667 33.6667C31.6667 34.7693 30.7693 35.6667 29.6667 35.6667ZM5.66667 13.6667H39.6667V17.6667H5.66667V13.6667ZM39.6667 12.3333H5.66667V8.33333H39.6667V12.3333ZM5.66667 23V19H39.6667V23H5.66667Z" fill="white" stroke="white" stroke-width="2"/>
</svg>
