<svg width="90" height="98" viewBox="0 0 90 98" fill="none" xmlns="http://www.w3.org/2000/svg">
<line x1="2.5" y1="52.5" x2="21.5" y2="52.5" stroke="white" stroke-width="3" stroke-linecap="square"/>
<line x1="21.5" y1="35.5" x2="40.5" y2="35.5" stroke="white" stroke-width="3" stroke-linecap="square"/>
<line x1="21.5" y1="49.5" x2="21.5" y2="38.5" stroke="white" stroke-width="3" stroke-linecap="square"/>
<line x1="2.5" y1="66.5" x2="2.5" y2="55.5" stroke="white" stroke-width="3" stroke-linecap="square"/>
<line x1="40.5" y1="32.5" x2="40.5" y2="21.5" stroke="white" stroke-width="3" stroke-linecap="square"/>
<line x1="59.5" y1="15.5" x2="59.5" y2="4.5" stroke="white" stroke-width="3" stroke-linecap="square"/>
<line x1="40.5" y1="18.5" x2="59.5" y2="18.5" stroke="white" stroke-width="3" stroke-linecap="square"/>
<line x1="59.5" y1="1.5" x2="78.5" y2="1.5" stroke="white" stroke-width="3" stroke-linecap="square"/>
<line x1="14.5" y1="82.5" x2="33.5" y2="82.5" stroke="white" stroke-width="3" stroke-linecap="square"/>
<line x1="33.5" y1="65.5" x2="52.5" y2="65.5" stroke="white" stroke-width="3" stroke-linecap="square"/>
<line x1="33.5" y1="79.5" x2="33.5" y2="68.5" stroke="white" stroke-width="3" stroke-linecap="square"/>
<line x1="14.5" y1="96.5" x2="14.5" y2="85.5" stroke="white" stroke-width="3" stroke-linecap="square"/>
<line x1="52.5" y1="62.5" x2="52.5" y2="51.5" stroke="white" stroke-width="3" stroke-linecap="square"/>
<line x1="71.5" y1="45.5" x2="71.5" y2="34.5" stroke="white" stroke-width="3" stroke-linecap="square"/>
<line x1="52.5" y1="48.5" x2="71.5" y2="48.5" stroke="white" stroke-width="3" stroke-linecap="square"/>
<line x1="71.5" y1="31.5" x2="88.5" y2="31.5" stroke="white" stroke-width="3" stroke-linecap="square"/>
<line x1="40.9498" y1="37.8356" x2="51.8356" y2="65.0502" stroke="white" stroke-width="3" stroke-linecap="square"/>
<line x1="21.9498" y1="37.8356" x2="32.8356" y2="65.0502" stroke="white" stroke-width="3" stroke-linecap="square"/>
<line x1="21.9498" y1="54.8356" x2="32.8356" y2="82.0502" stroke="white" stroke-width="3" stroke-linecap="square"/>
<line x1="2.9498" y1="54.8356" x2="13.8356" y2="82.0502" stroke="white" stroke-width="3" stroke-linecap="square"/>
<line x1="2.9498" y1="54.8356" x2="13.8356" y2="82.0502" stroke="white" stroke-width="3" stroke-linecap="square"/>
<line x1="40.9498" y1="20.8356" x2="51.8356" y2="48.0502" stroke="white" stroke-width="3" stroke-linecap="square"/>
<line x1="59.9498" y1="20.8356" x2="70.8356" y2="48.0502" stroke="white" stroke-width="3" stroke-linecap="square"/>
<line x1="59.9498" y1="3.83563" x2="70.8356" y2="31.0502" stroke="white" stroke-width="3" stroke-linecap="square"/>
<path d="M58.5 17.5H39.5L52 48H70.5L58.5 17.5Z" fill="white" stroke="white"/>
<path d="M20 52H1L13.5 82.5H32L20 52Z" fill="white" stroke="white"/>
<path d="M40 35H21L33.5 65.5H52L40 35Z" fill="white" stroke="white"/>
</svg>
