<svg width="122" height="110" viewBox="0 0 122 110" fill="none" xmlns="http://www.w3.org/2000/svg">
<circle cx="24" cy="77" r="13.5" stroke="white" stroke-width="3"/>
<circle cx="99" cy="77" r="13.5" stroke="white" stroke-width="3"/>
<path d="M120.5 51.3772V75.5H117.298C117.222 75.0754 117.12 74.5661 116.982 73.9934C116.579 72.3138 115.867 70.0562 114.63 67.7831C112.132 63.1918 107.444 58.5 99 58.5C90.5564 58.5 85.8681 63.1918 83.3699 67.7831C82.1331 70.0562 81.4215 72.3138 81.018 73.9934C80.8805 74.5661 80.7779 75.0754 80.7021 75.5H42.2979C42.2221 75.0754 42.1195 74.5661 41.982 73.9934C41.5785 72.3138 40.8669 70.0562 39.6301 67.7831C37.1319 63.1918 32.4436 58.5 24 58.5C15.5564 58.5 10.8681 63.1918 8.36992 67.7831C7.13308 70.0562 6.42148 72.3138 6.01805 73.9934C5.88049 74.5661 5.77785 75.0754 5.70212 75.5H2V51H70.5H72V49.5V12.5H99.6307L120.5 51.3772Z" stroke="white" stroke-width="3"/>
<rect x="2" y="2" width="70" height="49" stroke="white" stroke-width="3"/>
<rect x="1.5" y="93.5" width="119" height="15" stroke="white" stroke-width="3"/>
</svg>
