<svg width="108" height="128" viewBox="0 0 108 128" fill="none" xmlns="http://www.w3.org/2000/svg">
<mask id="path-1-inside-1" fill="white">
<path d="M26 102V98.1258C26 96.4088 28.0282 95 30.5 95C32.9718 95 35 96.4088 35 98.1258V102"/>
</mask>
<path d="M29 102V98.1258H23V102H29ZM29 98.1258C29 98.5356 28.7588 98.5745 29.0345 98.3829C29.2937 98.2029 29.8061 98 30.5 98V92C28.7221 92 26.9845 92.5015 25.6116 93.4551C24.2553 94.3972 23 95.999 23 98.1258H29ZM30.5 98C31.1939 98 31.7063 98.2029 31.9655 98.3829C32.2412 98.5745 32 98.5356 32 98.1258H38C38 95.999 36.7447 94.3972 35.3884 93.4551C34.0155 92.5015 32.2779 92 30.5 92V98ZM32 98.1258V102H38V98.1258H32Z" fill="white" mask="url(#path-1-inside-1)"/>
<mask id="path-3-inside-2" fill="white">
<path d="M75 102V98.1258C75 96.4088 77.0282 95 79.5 95C81.9718 95 84 96.4088 84 98.1258V102"/>
</mask>
<path d="M78 102V98.1258H72V102H78ZM78 98.1258C78 98.5356 77.7588 98.5745 78.0345 98.3829C78.2937 98.2029 78.8061 98 79.5 98V92C77.7221 92 75.9845 92.5015 74.6116 93.4551C73.2553 94.3972 72 95.999 72 98.1258H78ZM79.5 98C80.1939 98 80.7063 98.2029 80.9655 98.3829C81.2412 98.5745 81 98.5356 81 98.1258H87C87 95.999 85.7447 94.3972 84.3884 93.4551C83.0155 92.5015 81.2779 92 79.5 92V98ZM81 98.1258V102H87V98.1258H81Z" fill="white" mask="url(#path-3-inside-2)"/>
<rect x="8.5" y="103.5" width="91" height="23" stroke="white" stroke-width="3"/>
<path d="M66.5 78.5H54H41.5V53.5H54H66.5V78.5Z" stroke="white" stroke-width="3" stroke-miterlimit="10"/>
<path d="M54 52V80" stroke="white" stroke-width="3" stroke-miterlimit="10"/>
<mask id="path-8-inside-3" fill="white">
<path d="M0 31.3012L54.1987 0L108 32"/>
</mask>
<path d="M54.1987 0L55.7323 -2.5784L54.2211 -3.47726L52.6984 -2.59788L54.1987 0ZM1.50034 33.899L55.6991 2.59788L52.6984 -2.59788L-1.50034 28.7033L1.50034 33.899ZM52.6651 2.5784L106.466 34.5784L109.534 29.4216L55.7323 -2.5784L52.6651 2.5784Z" fill="white" mask="url(#path-8-inside-3)"/>
<path d="M54.396 12.7268L99.5 38.9631V103.5H8.5V38.3922L54.396 12.7268Z" stroke="white" stroke-width="3" stroke-miterlimit="10"/>
</svg>
