<svg width="124" height="132" viewBox="0 0 124 132" fill="none" xmlns="http://www.w3.org/2000/svg">
<path fill-rule="evenodd" clip-rule="evenodd" d="M2 52.5H122V79.5H2V52.5ZM26.5 66C26.5 70.4183 22.9183 74 18.5 74C14.0817 74 10.5 70.4183 10.5 66C10.5 61.5817 14.0817 58 18.5 58C22.9183 58 26.5 61.5817 26.5 66ZM36.5 74C40.9183 74 44.5 70.4183 44.5 66C44.5 61.5817 40.9183 58 36.5 58C32.0817 58 28.5 61.5817 28.5 66C28.5 70.4183 32.0817 74 36.5 74ZM62.5 66C62.5 70.4183 58.9183 74 54.5 74C50.0817 74 46.5 70.4183 46.5 66C46.5 61.5817 50.0817 58 54.5 58C58.9183 58 62.5 61.5817 62.5 66ZM72.5 74C76.9183 74 80.5 70.4183 80.5 66C80.5 61.5817 76.9183 58 72.5 58C68.0817 58 64.5 61.5817 64.5 66C64.5 70.4183 68.0817 74 72.5 74ZM98.5 66C98.5 70.4183 94.9183 74 90.5 74C86.0817 74 82.5 70.4183 82.5 66C82.5 61.5817 86.0817 58 90.5 58C94.9183 58 98.5 61.5817 98.5 66ZM108.5 74C112.918 74 116.5 70.4183 116.5 66C116.5 61.5817 112.918 58 108.5 58C104.082 58 100.5 61.5817 100.5 66C100.5 70.4183 104.082 74 108.5 74Z" fill="white"/>
<path d="M122 52.5H123.5V51H122V52.5ZM2 52.5V51H0.5V52.5H2ZM122 79.5V81H123.5V79.5H122ZM2 79.5H0.5V81H2V79.5ZM122 51H2V54H122V51ZM123.5 79.5V52.5H120.5V79.5H123.5ZM2 81H122V78H2V81ZM0.5 52.5V79.5H3.5V52.5H0.5ZM18.5 75.5C23.7467 75.5 28 71.2467 28 66H25C25 69.5899 22.0899 72.5 18.5 72.5V75.5ZM9 66C9 71.2467 13.2533 75.5 18.5 75.5V72.5C14.9101 72.5 12 69.5899 12 66H9ZM18.5 56.5C13.2533 56.5 9 60.7533 9 66H12C12 62.4101 14.9101 59.5 18.5 59.5V56.5ZM28 66C28 60.7533 23.7467 56.5 18.5 56.5V59.5C22.0899 59.5 25 62.4101 25 66H28ZM43 66C43 69.5899 40.0899 72.5 36.5 72.5V75.5C41.7467 75.5 46 71.2467 46 66H43ZM36.5 59.5C40.0899 59.5 43 62.4101 43 66H46C46 60.7533 41.7467 56.5 36.5 56.5V59.5ZM30 66C30 62.4101 32.9101 59.5 36.5 59.5V56.5C31.2533 56.5 27 60.7533 27 66H30ZM36.5 72.5C32.9101 72.5 30 69.5899 30 66H27C27 71.2467 31.2533 75.5 36.5 75.5V72.5ZM54.5 75.5C59.7467 75.5 64 71.2467 64 66H61C61 69.5899 58.0899 72.5 54.5 72.5V75.5ZM45 66C45 71.2467 49.2533 75.5 54.5 75.5V72.5C50.9101 72.5 48 69.5899 48 66H45ZM54.5 56.5C49.2533 56.5 45 60.7533 45 66H48C48 62.4101 50.9101 59.5 54.5 59.5V56.5ZM64 66C64 60.7533 59.7467 56.5 54.5 56.5V59.5C58.0899 59.5 61 62.4101 61 66H64ZM79 66C79 69.5899 76.0899 72.5 72.5 72.5V75.5C77.7467 75.5 82 71.2467 82 66H79ZM72.5 59.5C76.0899 59.5 79 62.4101 79 66H82C82 60.7533 77.7467 56.5 72.5 56.5V59.5ZM66 66C66 62.4101 68.9101 59.5 72.5 59.5V56.5C67.2533 56.5 63 60.7533 63 66H66ZM72.5 72.5C68.9101 72.5 66 69.5899 66 66H63C63 71.2467 67.2533 75.5 72.5 75.5V72.5ZM90.5 75.5C95.7467 75.5 100 71.2467 100 66H97C97 69.5899 94.0899 72.5 90.5 72.5V75.5ZM81 66C81 71.2467 85.2533 75.5 90.5 75.5V72.5C86.9101 72.5 84 69.5899 84 66H81ZM90.5 56.5C85.2533 56.5 81 60.7533 81 66H84C84 62.4101 86.9101 59.5 90.5 59.5V56.5ZM100 66C100 60.7533 95.7467 56.5 90.5 56.5V59.5C94.0899 59.5 97 62.4101 97 66H100ZM115 66C115 69.5899 112.09 72.5 108.5 72.5V75.5C113.747 75.5 118 71.2467 118 66H115ZM108.5 59.5C112.09 59.5 115 62.4101 115 66H118C118 60.7533 113.747 56.5 108.5 56.5V59.5ZM102 66C102 62.4101 104.91 59.5 108.5 59.5V56.5C103.253 56.5 99 60.7533 99 66H102ZM108.5 72.5C104.91 72.5 102 69.5899 102 66H99C99 71.2467 103.253 75.5 108.5 75.5V72.5Z" fill="white"/>
<path d="M15 132V78H2V132" stroke="white" stroke-width="3"/>
<path d="M122 132V78H109V132" stroke="white" stroke-width="3"/>
<path d="M109 0V54H122V0" stroke="white" stroke-width="3"/>
<path d="M2 0V54H15V0" stroke="white" stroke-width="3"/>
</svg>
