<svg width="37" height="40" viewBox="0 0 37 40" fill="none" xmlns="http://www.w3.org/2000/svg">
<path d="M34.0099 14.3078H33.0338V9.6734C33.0338 9.6445 33.0291 9.61538 33.0256 9.58589C33.024 9.40209 32.9641 9.22126 32.8361 9.07812L24.9982 0.268264C24.9958 0.266013 24.9935 0.265214 24.9919 0.262745C24.9452 0.211401 24.8907 0.1687 24.8332 0.131735C24.8161 0.120479 24.7989 0.111038 24.7811 0.101089C24.7312 0.0745097 24.6783 0.0520696 24.6238 0.0360203C24.609 0.0321713 24.5957 0.0262164 24.581 0.0223674C24.5218 0.00864196 24.4603 0 24.398 0H5.13631C4.25675 0 3.5422 0.70392 3.5422 1.5687V14.3075H2.56632C1.30808 14.3075 0.287842 15.3109 0.287842 16.5495V28.2085C0.287842 29.4458 1.30808 30.4503 2.56632 30.4503H3.54227V38.4313C3.54227 39.296 4.25682 40 5.13639 40H31.4393C32.3181 40 33.0334 39.2961 33.0334 38.4313V30.4503H34.0095C35.2674 30.4503 36.2878 29.4462 36.2878 28.2085V16.5499C36.2878 15.3109 35.2681 14.3078 34.0099 14.3078ZM5.13631 1.5687H23.601V9.5941C23.601 10.0274 23.9582 10.3784 24.398 10.3784H31.4392V14.3078H5.13631V1.5687ZM23.023 25.733V28.0078H15.4176V16.0279H18.1822V25.733H23.023ZM3.44257 28.0074L6.96512 21.9466L3.56884 16.0279H6.72999L7.79561 18.2137C8.15716 18.9421 8.42824 19.5293 8.71739 20.2045H8.75304C9.04278 19.4399 9.2771 18.9066 9.58397 18.2137L10.6138 16.0279H13.7569L10.3244 21.8757L13.9378 28.0077H10.7584L9.65659 25.8394C9.2053 25.0037 8.91592 24.3819 8.57289 23.6887H8.53673C8.28351 24.3822 7.97709 25.0045 7.59782 25.8394L6.58593 28.0077H3.44257V28.0074ZM31.4393 38.0067H5.13631V30.4503H31.4392V38.0067H31.4393ZM27.6283 28.1862C26.2381 28.1862 24.8648 27.8301 24.179 27.4571L24.7383 25.2175C25.4792 25.5905 26.6172 25.9643 27.7918 25.9643C29.0567 25.9643 29.7245 25.4488 29.7245 24.6668C29.7245 23.92 29.1466 23.4934 27.6832 22.9779C25.6603 22.2843 24.3413 21.1825 24.3413 19.4399C24.3413 17.3956 26.0755 15.8318 28.9486 15.8318C30.3208 15.8318 31.3327 16.117 32.0551 16.4361L31.4409 18.6227C30.9533 18.3913 30.0858 18.0538 28.8941 18.0538C27.7021 18.0538 27.1241 18.5867 27.1241 19.2094C27.1241 19.9737 27.8098 20.3118 29.3818 20.8984C31.5313 21.6805 32.5432 22.7819 32.5432 24.4708C32.5422 26.4798 30.9711 28.1862 27.6283 28.1862Z" fill="white"/>
</svg>
