<svg width="170" height="100" viewBox="0 0 170 100" fill="none" xmlns="http://www.w3.org/2000/svg">
<path d="M48.8971 18.2966H1.11597V0H38.4062L48.8971 9.63387V18.2966Z" fill="#4D4D4D"/>
<path d="M85.1571 27.1243H66.1305V64.9119H85.1571V27.1243Z" fill="#4D4D4D"/>
<path d="M160.406 0L169.943 9.51733V18.3257H120.407V10.2845L129.944 0H160.406Z" fill="#4D4D4D"/>
<path d="M1.11615 26.0757V28.0957H46.5225V28.8629L36.6325 40.8858L18.2163 40.9052L18.1304 62.1638H1.11615V64.0479H20.1428L20.2286 42.5659L37.3859 42.5368L48.8973 29.1834V26.0757H1.11615Z" fill="#4D4D4D"/>
<path d="M65.9683 0V1.85491L106.244 1.81606L106.205 16.6068H65.9683V18.3937H108.151V0H65.9683Z" fill="#4D4D4D"/>
<path d="M151.918 37.0592L151.994 44.809L138.518 44.6925L138.68 27.1243H136.668L136.696 46.5571L153.844 46.528V38.749L167.959 38.7004L167.988 51.1021L158.317 62.115H133.95L122.419 51.0244L122.314 27.1243H120.521V51.6751L133.168 64.0476H159.175L170 51.9956V37.098L151.918 37.0592Z" fill="#4D4D4D"/>
<path d="M2.52734 92.522V96.9311H0V84.4226H4.78765C5.71275 84.4226 6.52341 84.5974 7.21962 84.9373C7.91583 85.2772 8.45945 85.7725 8.8314 86.4038C9.21289 87.035 9.39409 87.7537 9.39409 88.5597C9.39409 89.7834 8.984 90.7545 8.15426 91.4635C7.33407 92.1724 6.18961 92.522 4.73043 92.522H2.52734V92.522ZM2.52734 90.4341H4.78765C5.45525 90.4341 5.97026 90.269 6.32313 89.9485C6.67601 89.628 6.84767 89.1716 6.84767 88.5694C6.84767 87.9576 6.66647 87.4623 6.31359 87.0836C5.96072 86.7048 5.47432 86.5106 4.84487 86.5009H2.52734V90.4341Z" fill="#4D4D4D"/>
<path d="M19.2075 90.3269L21.4392 84.4126H24.1764L19.8847 94.7263L19.5413 95.4061C18.9023 96.5326 17.9296 97.0959 16.623 97.0959L15.736 97.0571L15.7074 94.9885C15.8409 95.0079 16.0603 95.0273 16.3655 95.0273C16.7183 95.0273 17.0045 94.9691 17.2238 94.8428C17.4432 94.7166 17.6244 94.4835 17.7674 94.1436L18.0822 93.3278L13.7714 84.4126H16.499L19.2075 90.3269Z" fill="#4D4D4D"/>
<path d="M38.4061 92.755C38.3107 94.1049 37.8243 95.1635 36.9469 95.9307C36.0695 96.6979 34.906 97.0864 33.4659 97.0864C31.8922 97.0864 30.6524 96.5425 29.7464 95.4645C28.8403 94.3866 28.3921 92.9007 28.3921 91.0166V90.2494C28.3921 89.0452 28.6019 87.9866 29.012 87.0738C29.4221 86.1609 30.0229 85.4519 30.7955 84.9663C31.568 84.4808 32.4645 84.2283 33.4945 84.2283C34.9155 84.2283 36.0504 84.6167 36.9183 85.3839C37.7862 86.1609 38.2821 87.2388 38.4156 88.6373H35.8883C35.8311 87.8313 35.6022 87.2486 35.2302 86.8795C34.8487 86.5202 34.2765 86.3357 33.4945 86.3357C32.6552 86.3357 32.0162 86.6464 31.5966 87.2583C31.1769 87.8701 30.9671 88.8315 30.948 90.1232V91.0652C30.948 92.4151 31.1483 93.4057 31.5489 94.0272C31.9494 94.6488 32.5884 94.9595 33.4468 94.9595C34.2288 94.9595 34.8106 94.775 35.2016 94.4157C35.5831 94.0564 35.812 93.4931 35.8597 92.7259H38.4061V92.755Z" fill="#4D4D4D"/>
<path d="M51.5868 86.5106H46.0743V96.9214H43.5469V84.4226H51.5868V86.5106Z" fill="#4D4D4D"/>
<path d="M59.1396 92.522V96.9311H56.6122V84.4226H61.3999C62.325 84.4226 63.1357 84.5974 63.8319 84.9373C64.5281 85.2772 65.0717 85.7725 65.4436 86.4038C65.8251 87.035 66.0063 87.7537 66.0063 88.5597C66.0063 89.7834 65.5962 90.7545 64.7665 91.4635C63.9463 92.1724 62.8019 92.522 61.3427 92.522H59.1396V92.522ZM59.1396 90.4341H61.3999C62.0675 90.4341 62.5825 90.269 62.9354 89.9485C63.2882 89.628 63.4599 89.1716 63.4599 88.5694C63.4599 87.9576 63.2787 87.4623 62.9258 87.0836C62.573 86.7048 62.0866 86.5106 61.4571 86.5009H59.1396V90.4341V90.4341Z" fill="#4D4D4D"/>
<path d="M76.6402 94.3475H72.1959L71.3566 96.9211H68.6671L73.2354 84.4126H75.5816L80.1785 96.9211H77.489L76.6402 94.3475ZM72.8825 92.2595H75.9535L74.4085 87.5786L72.8825 92.2595Z" fill="#4D4D4D"/>
<path d="M96.3349 100H93.9983V96.9214H86.588V99.9902H84.1941L84.0606 94.8528H84.9857C85.4816 94.4255 85.8727 93.804 86.1492 92.9882C86.4258 92.1627 86.607 91.1527 86.7024 89.9388L87.0553 84.4226H95.1046V94.8625H96.5352L96.3349 100ZM87.885 94.8528H92.5677V86.5009H89.4586L89.2488 89.7931C89.0771 91.9976 88.6289 93.6874 87.885 94.8528Z" fill="#4D4D4D"/>
<path d="M110.755 92.755C110.659 94.1049 110.173 95.1635 109.286 95.9307C108.399 96.6979 107.245 97.0864 105.805 97.0864C104.231 97.0864 102.992 96.5425 102.086 95.4645C101.18 94.3866 100.731 92.9007 100.731 91.0166V90.2494C100.731 89.0452 100.941 87.9866 101.351 87.0738C101.761 86.1609 102.362 85.4519 103.135 84.9663C103.907 84.4808 104.804 84.2283 105.834 84.2283C107.255 84.2283 108.39 84.6167 109.258 85.3839C110.125 86.1609 110.621 87.2388 110.755 88.6373H108.228C108.161 87.8313 107.941 87.2486 107.569 86.8795C107.188 86.5202 106.616 86.3357 105.834 86.3357C104.994 86.3357 104.355 86.6464 103.936 87.2583C103.516 87.8701 103.297 88.8315 103.287 90.1232V91.0652C103.287 92.4151 103.488 93.4057 103.888 94.0272C104.289 94.6488 104.928 94.9595 105.786 94.9595C106.568 94.9595 107.15 94.775 107.541 94.4157C107.922 94.0564 108.142 93.4931 108.199 92.7259H110.755V92.755Z" fill="#4D4D4D"/>
<path d="M124.87 86.5106H121.113V96.9214H118.585V86.5106H114.875V84.4226H124.88V86.5106H124.87Z" fill="#4D4D4D"/>
<path d="M132.3 92.522V96.9311H129.772V84.4226H134.56C135.485 84.4226 136.296 84.5974 136.992 84.9373C137.688 85.2772 138.232 85.7725 138.604 86.4038C138.985 87.035 139.166 87.7537 139.166 88.5597C139.166 89.7834 138.756 90.7545 137.926 91.4635C137.106 92.1724 135.962 92.522 134.503 92.522H132.3V92.522ZM132.3 90.4341H134.56C135.227 90.4341 135.742 90.269 136.095 89.9485C136.448 89.628 136.62 89.1716 136.62 88.5694C136.62 87.9576 136.439 87.4623 136.086 87.0836C135.733 86.7048 135.246 86.5106 134.617 86.5009H132.3V90.4341V90.4341Z" fill="#4D4D4D"/>
<path d="M154.454 90.9584C154.454 92.1918 154.245 93.2698 153.815 94.1924C153.386 95.1247 152.776 95.8336 151.984 96.3386C151.193 96.8436 150.277 97.0962 149.247 97.0962C148.227 97.0962 147.321 96.8436 146.52 96.3484C145.718 95.8531 145.098 95.1344 144.66 94.2118C144.221 93.2892 144.002 92.2209 143.992 91.0167V90.3952C143.992 89.1618 144.212 88.0838 144.65 87.1418C145.089 86.2095 145.699 85.4908 146.5 84.9858C147.292 84.4808 148.208 84.238 149.228 84.238C150.249 84.238 151.164 84.4905 151.956 84.9858C152.747 85.4908 153.367 86.2095 153.806 87.1418C154.245 88.0741 154.464 89.1618 154.464 90.3855V90.9584H154.454ZM151.889 90.3855C151.889 89.0744 151.66 88.0741 151.193 87.3943C150.725 86.7145 150.077 86.3746 149.219 86.3746C148.37 86.3746 147.712 86.7145 147.254 87.3846C146.796 88.0547 146.558 89.0453 146.558 90.3466V90.9584C146.558 92.2307 146.787 93.2309 147.254 93.9302C147.721 94.6294 148.379 94.9887 149.247 94.9887C150.096 94.9887 150.744 94.6488 151.202 93.969C151.66 93.2892 151.889 92.2986 151.898 90.9973V90.3855H151.889Z" fill="#4D4D4D"/>
<path d="M167.11 84.4226H169.647V96.9214H167.11V88.618L162.189 96.9214H159.662V84.4226H162.189V92.7454L167.11 84.4226ZM167.606 81.1401C167.606 81.8976 167.339 82.5095 166.805 82.9853C166.271 83.4515 165.565 83.6846 164.688 83.6846C163.81 83.6846 163.114 83.4515 162.57 82.995C162.027 82.5386 161.769 81.9171 161.769 81.1498H163.496C163.496 81.5092 163.6 81.7908 163.81 81.985C164.02 82.1793 164.316 82.2861 164.688 82.2861C165.05 82.2861 165.336 82.189 165.546 81.985C165.756 81.7908 165.861 81.5092 165.861 81.1498H167.606V81.1401Z" fill="#4D4D4D"/>
</svg>
