<svg width="175" height="100" viewBox="0 0 175 100" fill="none" xmlns="http://www.w3.org/2000/svg">
<path d="M2.60709 92.07V96.7456H0V83.481H4.93872C5.89302 83.481 6.72926 83.6663 7.44744 84.0268C8.16562 84.3872 8.72639 84.9125 9.11007 85.5819C9.5036 86.2513 9.69052 87.0134 9.69052 87.8682C9.69052 89.1658 9.26748 90.1957 8.41157 90.9475C7.56549 91.6993 6.38492 92.07 4.87969 92.07H2.60709ZM2.60709 89.8558H4.93872C5.62739 89.8558 6.15865 89.6808 6.52266 89.3409C6.88667 89.001 7.06375 88.517 7.06375 87.8785C7.06375 87.2297 6.87683 86.7044 6.51282 86.3028C6.14881 85.9011 5.64707 85.6952 4.99775 85.6849H2.60709V89.8558Z" fill="#4D4D4D"/>
<path d="M19.8139 89.7426L22.116 83.4707H24.9395L20.5124 94.4079L20.1582 95.1288C19.4991 96.3234 18.4956 96.9208 17.1478 96.9208L16.2328 96.8796L16.2033 94.6859C16.341 94.7065 16.5673 94.7271 16.8821 94.7271C17.2461 94.7271 17.5413 94.6654 17.7676 94.5315C17.9938 94.3976 18.1808 94.1504 18.3283 93.79L18.653 92.9249L14.2062 83.4707H17.0199L19.8139 89.7426Z" fill="#4D4D4D"/>
<path d="M39.618 92.3171C39.5196 93.7486 39.0179 94.8712 38.1128 95.6848C37.2077 96.4984 36.0074 96.9103 34.5219 96.9103C32.8986 96.9103 31.6197 96.3336 30.685 95.1905C29.7504 94.0473 29.288 92.4716 29.288 90.4737V89.6601C29.288 88.383 29.5045 87.2605 29.9275 86.2924C30.3505 85.3243 30.9703 84.5725 31.7672 84.0576C32.5641 83.5427 33.4889 83.2749 34.5514 83.2749C36.0173 83.2749 37.188 83.6868 38.0833 84.5004C38.9785 85.3243 39.4901 86.4675 39.6279 87.9505H37.0208C36.9617 87.0957 36.7256 86.4778 36.3419 86.0864C35.9484 85.7054 35.3581 85.5097 34.5514 85.5097C33.6857 85.5097 33.0265 85.8393 32.5936 86.4881C32.1607 87.1369 31.9443 88.1565 31.9246 89.5262V90.5252C31.9246 91.9567 32.1312 93.0071 32.5444 93.6662C32.9576 94.3254 33.6168 94.6549 34.5022 94.6549C35.3089 94.6549 35.9091 94.4592 36.3124 94.0782C36.7059 93.6971 36.9421 93.0998 36.9912 92.2862H39.618V92.3171Z" fill="#4D4D4D"/>
<path d="M53.2142 85.6952H47.5278V96.7353H44.9207V83.481H53.2142V85.6952Z" fill="#4D4D4D"/>
<path d="M61.006 92.07V96.7456H58.3989V83.481H63.3376C64.2919 83.481 65.1282 83.6663 65.8464 84.0268C66.5645 84.3872 67.1253 84.9125 67.509 85.5819C67.9025 86.2513 68.0894 87.0134 68.0894 87.8682C68.0894 89.1658 67.6664 90.1957 66.8105 90.9475C65.9644 91.6993 64.7838 92.07 63.2786 92.07H61.006ZM61.006 89.8558H63.3376C64.0263 89.8558 64.5576 89.6808 64.9216 89.3409C65.2856 89.001 65.4627 88.517 65.4627 87.8785C65.4627 87.2297 65.2758 86.7044 64.9117 86.3028C64.5477 85.9011 64.046 85.6952 63.3967 85.6849H61.006V89.8558Z" fill="#4D4D4D"/>
<path d="M79.0589 94.0062H74.4744L73.6086 96.7354H70.8343L75.5467 83.4707H77.9669L82.7088 96.7354H79.9345L79.0589 94.0062ZM75.1827 91.792H78.3506L76.7568 86.8281L75.1827 91.792Z" fill="#4D4D4D"/>
<path d="M99.3746 100H96.9642V96.7353H89.32V99.9897H86.8507L86.713 94.5417H87.6672C88.1788 94.0886 88.5822 93.4295 88.8675 92.5644C89.1528 91.689 89.3397 90.6179 89.4381 89.3306L89.8021 83.481H98.1055V94.552H99.5812L99.3746 100ZM90.658 94.5417H95.4885V85.6849H92.2813L92.0649 89.1761C91.8878 91.5139 91.4254 93.3059 90.658 94.5417Z" fill="#4D4D4D"/>
<path d="M114.25 92.3171C114.151 93.7486 113.65 94.8712 112.735 95.6848C111.82 96.4984 110.629 96.9103 109.144 96.9103C107.521 96.9103 106.242 96.3336 105.307 95.1905C104.372 94.0473 103.91 92.4716 103.91 90.4737V89.6601C103.91 88.383 104.126 87.2605 104.549 86.2924C104.972 85.3243 105.592 84.5725 106.389 84.0576C107.186 83.5427 108.111 83.2749 109.173 83.2749C110.639 83.2749 111.81 83.6868 112.705 84.5004C113.6 85.3243 114.112 86.4675 114.25 87.9505H111.643C111.574 87.0957 111.348 86.4778 110.964 86.0864C110.57 85.7054 109.98 85.5097 109.173 85.5097C108.308 85.5097 107.648 85.8393 107.216 86.4881C106.783 87.1369 106.556 88.1565 106.547 89.5262V90.5252C106.547 91.9567 106.753 93.0071 107.166 93.6662C107.58 94.3254 108.239 94.6549 109.124 94.6549C109.931 94.6549 110.531 94.4592 110.934 94.0782C111.328 93.6971 111.554 93.0998 111.613 92.2862H114.25V92.3171Z" fill="#4D4D4D"/>
<path d="M128.81 85.6952H124.934V96.7353H122.327V85.6952H118.5V83.481H128.82V85.6952H128.81Z" fill="#4D4D4D"/>
<path d="M136.474 92.07V96.7456H133.867V83.481H138.806C139.76 83.481 140.596 83.6663 141.314 84.0268C142.033 84.3872 142.593 84.9125 142.977 85.5819C143.371 86.2513 143.557 87.0134 143.557 87.8682C143.557 89.1658 143.134 90.1957 142.279 90.9475C141.432 91.6993 140.252 92.07 138.747 92.07H136.474ZM136.474 89.8558H138.806C139.494 89.8558 140.026 89.6808 140.39 89.3409C140.754 89.001 140.931 88.517 140.931 87.8785C140.931 87.2297 140.744 86.7044 140.38 86.3028C140.016 85.9011 139.514 85.6952 138.865 85.6849H136.474V89.8558Z" fill="#4D4D4D"/>
<path d="M159.328 90.4118C159.328 91.7198 159.111 92.8629 158.669 93.8413C158.226 94.83 157.596 95.5818 156.78 96.1173C155.963 96.6528 155.019 96.9206 153.956 96.9206C152.904 96.9206 151.969 96.6528 151.143 96.1276C150.316 95.6024 149.677 94.8403 149.224 93.8619C148.772 92.8835 148.545 91.7507 148.536 90.4736V89.8145C148.536 88.5066 148.762 87.3634 149.214 86.3645C149.667 85.3758 150.297 84.6137 151.123 84.0782C151.94 83.5426 152.884 83.2852 153.937 83.2852C154.989 83.2852 155.934 83.5529 156.75 84.0782C157.567 84.6137 158.206 85.3758 158.659 86.3645C159.111 87.3531 159.338 88.5066 159.338 89.8042V90.4118H159.328ZM156.681 89.8042C156.681 88.4139 156.445 87.3531 155.963 86.6322C155.481 85.9113 154.812 85.5509 153.927 85.5509C153.051 85.5509 152.372 85.9113 151.9 86.6219C151.428 87.3325 151.182 88.383 151.182 89.763V90.4118C151.182 91.761 151.418 92.8217 151.9 93.5632C152.382 94.3047 153.061 94.6858 153.956 94.6858C154.832 94.6858 155.501 94.3253 155.973 93.6044C156.445 92.8835 156.681 91.833 156.691 90.453V89.8042H156.681Z" fill="#4D4D4D"/>
<path d="M172.383 83.4809H175V96.7353H172.383V87.93L167.307 96.7353H164.7V83.4809H167.307V92.3069L172.383 83.4809ZM172.895 80C172.895 80.8033 172.619 81.4521 172.068 81.9567C171.517 82.4511 170.789 82.6982 169.884 82.6982C168.979 82.6982 168.261 82.4511 167.7 81.967C167.139 81.483 166.874 80.8239 166.874 80.0103H168.654C168.654 80.3913 168.763 80.69 168.979 80.896C169.196 81.102 169.501 81.2152 169.884 81.2152C170.258 81.2152 170.553 81.1123 170.77 80.896C170.986 80.69 171.094 80.3913 171.094 80.0103H172.895V80Z" fill="#4D4D4D"/>
<path d="M50 19H0V0H39.022L50 10.0042V19Z" fill="#FBB03B"/>
<path d="M85 29H66V68H85V29Z" fill="#FBB03B"/>
<path d="M165.374 0L175 9.86751V19H125V10.663L134.626 0H165.374Z" fill="#FBB03B"/>
<path d="M0 29V31.0747H47.515V31.8627L37.1657 44.211L17.8942 44.2309L17.8044 66.065H0V68H19.9102L20 45.9366L37.9541 45.9066L50 32.1918V29H0Z" fill="#4D4D4D"/>
<path d="M66 0V1.91605L108.01 1.87592L107.971 17.1542H66V19H110V0H66Z" fill="#4D4D4D"/>
<path d="M156.727 39.4937L156.804 47.6794L143.186 47.5563L143.35 29H141.317L141.345 49.5258L158.674 49.495V41.2785L172.938 41.2272L172.966 54.3264L163.194 65.9587H138.57L126.918 54.2443L126.812 29H125V54.9316L137.779 68H164.061L175 55.2701V39.5347L156.727 39.4937Z" fill="#4D4D4D"/>
</svg>
