<svg width="80" height="301" viewBox="0 0 80 301" fill="none" xmlns="http://www.w3.org/2000/svg">
<rect y="0.414062" width="80" height="300.586" fill="#E6E6E6"/>
<path d="M52 181.982V188.152H31.1699V197.346H52V203.516H26.4062V181.982H52ZM42.3145 178.152C40.416 178.152 38.7285 177.783 37.252 177.045C35.7637 176.307 34.6211 175.246 33.8242 173.863C33.0273 172.48 32.6289 170.857 32.6289 168.994C32.6289 166.146 33.5137 163.902 35.2832 162.262C37.041 160.621 39.4375 159.801 42.4727 159.801H42.6836C45.6484 159.801 48.0039 160.627 49.75 162.279C51.4844 163.92 52.3516 166.146 52.3516 168.959C52.3516 171.666 51.543 173.84 49.9258 175.48C48.2969 177.121 46.0938 178.006 43.3164 178.135L42.3145 178.152ZM42.6836 172.229C44.4414 172.229 45.7305 171.953 46.5508 171.402C47.3711 170.852 47.7812 170.037 47.7812 168.959C47.7812 166.85 46.1582 165.771 42.9121 165.725H42.3145C38.9043 165.725 37.1992 166.814 37.1992 168.994C37.1992 170.975 38.6699 172.047 41.6113 172.211L42.6836 172.229ZM32.9805 145.125V139.184H52V145.125H40.9258L52 150.346V156.305H32.9805V150.346H44.0195L32.9805 145.125ZM47.7812 126.969C47.7812 126.137 47.5586 125.492 47.1133 125.035C46.6562 124.578 46.0234 124.355 45.2148 124.367V118.812C47.3008 118.812 49.0117 119.562 50.3477 121.062C51.6836 122.551 52.3516 124.473 52.3516 126.828C52.3516 129.594 51.4844 131.773 49.75 133.367C48.0156 134.961 45.6133 135.758 42.543 135.758H42.2969C40.375 135.758 38.6816 135.406 37.2168 134.703C35.7402 133.988 34.6094 132.963 33.8242 131.627C33.0273 130.291 32.6289 128.709 32.6289 126.881C32.6289 124.408 33.3145 122.445 34.6855 120.992C36.0566 119.539 37.9141 118.812 40.2578 118.812V124.367C39.2734 124.367 38.5176 124.607 37.9902 125.088C37.4629 125.568 37.1992 126.213 37.1992 127.021C37.1992 128.557 38.1777 129.453 40.1348 129.711C40.7559 129.793 41.6113 129.834 42.7012 129.834C44.6113 129.834 45.9355 129.605 46.6738 129.148C47.4121 128.691 47.7812 127.965 47.7812 126.969ZM45.3555 107.195V108.971H52V114.912H32.9805V108.971H39.8184V107.266L32.9805 104.242V96.6484L41.7695 102.203V102.186L52 96.0859V104.119L45.3555 107.195Z" fill="#4D4D4D"/>
<path d="M53.6723 243.561L46.2125 236.09C47.6832 234.325 48.5677 232.069 48.5677 229.605C48.5677 223.984 43.9586 219.414 38.2892 219.414C32.6197 219.414 28 223.99 28 229.61C28 235.231 32.6091 239.801 38.2785 239.801C40.687 239.801 42.9036 238.975 44.662 237.594L52.1484 245.086C52.5853 245.523 53.2354 245.523 53.6723 245.086C54.1092 244.649 54.1092 243.998 53.6723 243.561ZM30.1847 229.61C30.1847 225.195 33.8186 221.606 38.2785 221.606C42.7384 221.606 46.3724 225.195 46.3724 229.61C46.3724 234.026 42.7384 237.615 38.2785 237.615C33.8186 237.615 30.1847 234.021 30.1847 229.61Z" fill="#4D4D4D" stroke="#4D4D4D" stroke-width="2"/>
</svg>
