<svg width="5120" height="4293" viewBox="0 0 5120 4293" fill="none" xmlns="http://www.w3.org/2000/svg">
<g clip-path="url(#clip0)">
<path fill-rule="evenodd" clip-rule="evenodd" d="M5120 109.844V2882.84C5115.03 2883.39 5116.13 2882.65 5114 2885.84C5111.67 2893.17 5109.34 2900.51 5107 2907.84C5090.77 2934.61 5069.78 2963.08 5040 2975.84C5005.58 2990.58 4955.3 2988.84 4905 2988.84H182C155.955 2988.84 125.039 2991.97 104 2984.84C50.781 2966.81 25.3 2934.43 5 2882.84H0V108.844C4.975 108.289 3.872 109.034 6 105.844L12 85.8441C26.419 56.9711 52.57 28.5661 83 15.8441C142.554 -9.05592 287.4 2.84408 371 2.84408H4932C4962.15 2.84408 4996.18 0.244076 5020 8.84408C5070.98 27.2551 5095.23 59.5911 5115 109.844H5120ZM295 286.844C290.391 288.979 287.55 288.533 285 292.844C284.667 899.45 284.333 1506.12 284 2112.84V2536.84C284 2568.41 277.248 2685.57 287 2703.84C318.354 2711.32 363.82 2705.84 399 2705.84H4741C4767.89 2705.84 4815.8 2712.59 4835 2701.84V290.844C4809.44 279.234 4755.23 286.844 4722 286.844H295ZM2155 801.844H2564C2657.82 801.836 2753.62 798.26 2826 819.844C2951.3 857.21 3035.73 920.778 3096 1022.84C3132.05 1083.9 3140.19 1134.8 3154 1219.84C3154.67 1240.5 3155.34 1261.17 3156 1281.84C3148.39 1328.25 3147.26 1369.71 3135 1408.84C3087.4 1560.76 2981.83 1653.69 2828 1699.84C2742.79 1725.41 2623.68 1718.84 2514 1718.84H1980V1464.84H2155V801.844ZM1099 1017.84C1152.18 1016.97 1198.83 1023.4 1238 1038.84C1429.05 1114.17 1581.87 1355.4 1509 1636.84C1469.95 1787.69 1372.49 1899.49 1237 1954.84C1203.92 1968.35 1166.98 1969.19 1127 1975.84C1065.35 1986.09 975.325 1949.4 941 1928.84C832.478 1863.85 763.429 1774.88 722 1642.84C712.983 1614.1 714.108 1588.27 708 1555.84C696.336 1493.9 705.434 1403.12 722 1350.84C762.707 1222.37 849.23 1093.99 970 1047.84L1033 1026.84L1099 1017.84ZM3990 1017.84C4042.53 1016.98 4089.65 1023.09 4128 1038.84C4318.34 1116.99 4475.22 1356.17 4399 1638.84C4357.35 1793.31 4263.67 1890.26 4130 1953.84C4097.77 1969.17 4058.16 1969.16 4018 1975.84C3958.38 1985.75 3866.22 1950.46 3834 1929.84C3813.81 1916.92 3794.57 1908.61 3776 1894.84C3692.4 1832.85 3636.6 1736 3609 1617.84C3598.48 1572.8 3586.26 1506.36 3596 1449.84C3601.81 1416.12 3602.39 1383.42 3612 1352.84C3656.34 1211.76 3733.99 1110.08 3858 1048.84C3887.26 1034.39 3922.17 1029.43 3957 1020.84L3990 1017.84ZM2420 1056.84V1464.84H2591C2730.56 1464.85 2800.44 1454.28 2853 1366.84C2870.39 1337.92 2888.26 1289.84 2880 1237.84C2846.02 1023.99 2659.85 1056.38 2420 1056.84ZM1106 1302.84C1097.33 1305.17 1088.66 1307.51 1080 1309.84C1031.82 1339.16 1003.74 1389.24 991 1453.84C973.228 1544 1015.04 1634.38 1061 1668.84C1074.51 1678.97 1093.69 1695.63 1121 1690.84C1282.04 1662.61 1279.5 1301.18 1106 1302.84ZM3997 1302.84L3972 1308.84C3921.46 1333.81 3893.09 1391.48 3881 1454.84C3863.61 1546.02 3906.77 1635.13 3952 1668.84C3965.46 1678.87 3984.64 1695.87 4012 1690.84C4172.42 1661.36 4169.87 1301.2 3997 1302.84ZM1980 1799.84H2781V1993.84H2420V2196.84H2155V1993.84H1980V1799.84ZM341 3356.84H4649C4771.65 3356.83 4850.73 3348.98 4891 3433.84C4898.97 3450.65 4913.24 3475.46 4909 3502.84C4883.62 3666.67 4751.03 3640.84 4569 3640.84H425C387.458 3640.84 342.953 3645.26 313 3634.84C239.414 3609.25 178.969 3514.22 232 3425.84C245.992 3402.52 270.892 3378.69 297 3367.84C311.519 3361.8 325.254 3362.89 341 3356.84ZM676 4006.84H4332C4444.77 4006.83 4506.62 4002.5 4551 4072.84C4563.1 4092.01 4579.74 4121.48 4574 4156.84C4548.44 4314.22 4423.18 4290.85 4247 4290.84H754C718.44 4290.84 679.522 4294.12 650 4285.84C580.085 4266.23 511.146 4167.95 563 4080.84C578.344 4055.06 602.257 4029.89 631 4017.84C645.691 4011.68 659.86 4013.01 676 4006.84Z" fill="#398C6D"/>
</g>
<defs>
<clipPath id="clip0">
<rect width="5120" height="4292.06" fill="white"/>
</clipPath>
</defs>
</svg>
