<svg width="512" height="512" viewBox="0 0 512 512" fill="none" xmlns="http://www.w3.org/2000/svg">
<g clip-path="url(#clip0)">
<path d="M508.448 355.159C498.353 330.11 469.759 317.944 444.621 328.075L439.392 330.221C461.304 298.507 474.16 260.085 474.16 218.711C474.16 110.244 385.88 22 277.368 22C168.857 22 80.577 110.244 80.577 218.711C80.577 250.235 88.046 280.045 101.289 306.482L14.85 307.35C6.624 307.433 0 314.124 0 322.351V443.078C0 451.362 6.716 458.078 15 458.078H114.71L293.415 490.003C294.29 490.159 295.172 490.236 296.053 490.236C313.931 490.236 481.184 418.956 481.184 418.956C481.232 418.937 481.281 418.918 481.33 418.898C506.379 408.801 518.544 380.209 508.448 355.159ZM423.263 299.425C410.412 294.977 396.672 291.149 382.266 287.979C385.176 270.877 387.014 252.661 387.652 233.71H443.477C441.355 257.376 434.268 279.63 423.263 299.425ZM405.613 325.18C393.79 339.384 379.659 351.604 363.794 361.251L359.093 363.18C365.771 349.792 371.446 334.332 375.952 317.291C386.26 319.565 396.178 322.199 405.613 325.18ZM423.303 138.068C434.286 157.845 441.358 180.075 443.477 203.711H387.653C387.016 184.78 385.181 166.581 382.276 149.494C396.691 146.331 410.441 142.51 423.303 138.068ZM405.664 112.303C396.216 115.28 386.285 117.911 375.966 120.181C371.331 102.635 365.451 86.77 358.518 73.108C376.554 83.192 392.537 96.518 405.664 112.303ZM357.626 203.711H292.369V160.185C312.986 159.605 333.248 157.823 352.68 154.922C355.317 170.491 356.997 186.935 357.626 203.711ZM292.369 52.682C297.017 53.098 301.613 53.699 306.144 54.49C319.323 62.956 332.087 82.903 341.384 109.693C343.145 114.769 344.763 120.083 346.258 125.564C328.905 128.07 310.811 129.629 292.369 130.175V52.682ZM292.369 233.711H357.626C356.997 250.499 355.315 266.956 352.674 282.535C337.44 280.253 321.695 278.66 305.664 277.794C301.626 274.785 297.142 272.398 292.369 270.741V233.711ZM324.736 309.3C332.011 310.005 339.192 310.865 346.247 311.888C344.755 317.358 343.14 322.66 341.382 327.727C332.086 354.52 319.32 374.469 306.139 382.932C303.065 383.468 299.962 383.915 296.833 384.28L275.019 367.8L288.521 364.444C288.571 364.432 288.622 364.42 288.671 364.406C301.334 361.119 311.959 353.097 318.59 341.818C324.418 331.903 326.541 320.513 324.736 309.3ZM213.353 109.693C222.649 82.904 235.413 62.956 248.593 54.49C253.125 53.699 257.72 53.097 262.368 52.681V130.17C243.925 129.614 225.834 128.047 208.488 125.532C209.98 120.062 211.595 114.759 213.353 109.693ZM202.063 154.886C221.489 157.797 241.749 159.589 262.368 160.178V203.71H197.111C197.74 186.921 199.422 170.465 202.063 154.886ZM262.368 233.712V270.04L227.134 279.427C218.65 280.247 210.28 281.273 202.058 282.501C199.421 266.933 197.74 250.487 197.112 233.712H262.368ZM196.219 73.109C189.293 86.757 183.417 102.605 178.784 120.132C168.477 117.858 158.559 115.224 149.124 112.243C162.241 96.484 178.206 83.178 196.219 73.109ZM131.474 137.998C144.325 142.446 158.065 146.274 172.471 149.443C169.561 166.545 167.723 184.761 167.085 203.711H111.261C113.382 180.046 120.469 157.792 131.474 137.998ZM167.085 233.711C167.722 252.643 169.557 270.841 172.462 287.929C158.047 291.092 144.297 294.913 131.435 299.355C120.452 279.578 113.38 257.348 111.261 233.711H167.085ZM470.179 391.046L294.528 459.726L118.676 428.31C117.805 428.155 116.923 428.077 116.038 428.077H30V337.201L125.787 336.239C128.891 336.808 132.092 336.384 134.926 335.041L271.594 298.628C281.726 296.002 292.104 302.101 294.734 312.231C296.008 317.137 295.295 322.247 292.726 326.618C290.168 330.969 286.076 334.069 281.197 335.353L237.28 346.269C231.67 347.664 227.361 352.158 226.203 357.821C225.045 363.485 227.245 369.31 231.857 372.795L289.394 416.261C293.623 419.455 299.225 420.18 304.131 418.169L455.923 355.866C465.63 351.951 476.709 356.668 480.621 366.375C484.527 376.058 479.841 387.11 470.179 391.046Z" fill="#398C6D"/>
</g>
<defs>
<clipPath id="clip0">
<rect width="512" height="512" fill="white"/>
</clipPath>
</defs>
</svg>
