<svg width="512" height="512" viewBox="0 0 512 512" fill="none" xmlns="http://www.w3.org/2000/svg">
<path d="M112.808 156.732C116.883 156.732 120.944 155.081 123.904 151.83L185.783 83.862L271.955 147.532C277.958 151.968 286.31 151.316 291.549 146L383.804 52.447V112.859C383.804 121.143 390.52 127.859 398.804 127.859C407.088 127.859 413.804 121.143 413.804 112.859V15.875C413.804 7.591 407.088 0.875 398.804 0.875H307.914C299.63 0.875 292.914 7.591 292.914 15.875C292.914 24.159 299.63 30.875 307.914 30.875H362.946L279.321 115.675L192.72 51.688C186.533 47.117 177.893 47.965 172.714 53.654L101.719 131.634C96.142 137.76 96.587 147.247 102.713 152.824C105.589 155.441 109.204 156.732 112.808 156.732Z" fill="#398C6D"/>
<path d="M435.517 389.863C449.69 375.113 458.43 355.107 458.43 333.085C458.43 287.856 421.634 251.06 376.405 251.06C363.305 251.06 350.418 254.235 338.878 260.163C323.255 229.513 291.382 208.471 254.686 208.471C218.402 208.471 186.837 229.044 171.03 259.136C160.034 253.876 147.911 251.06 135.597 251.06C90.368 251.06 53.572 287.856 53.572 333.085C53.572 355.107 62.312 375.114 76.485 389.863C32.252 403.434 0 444.659 0 493.278V496.125C0 504.409 6.716 511.125 15 511.125H497C505.284 511.125 512 504.409 512 496.125V493.278C512 444.659 479.748 403.434 435.517 389.863ZM376.404 281.059C405.091 281.059 428.429 304.397 428.429 333.084C428.429 361.771 405.091 385.109 376.404 385.109C376.27 385.109 376.141 385.126 376.008 385.129H364.925C352.326 376.83 337.9 371.089 322.388 368.662C338.92 351.646 349.118 328.445 349.118 302.902C349.118 298.317 348.783 293.81 348.148 289.398C356.541 283.933 366.201 281.059 376.404 281.059ZM254.685 238.47C290.213 238.47 319.118 267.374 319.118 302.903C319.118 338.432 290.214 367.336 254.685 367.336C219.156 367.336 190.252 338.432 190.252 302.903C190.252 267.374 219.157 238.47 254.685 238.47ZM135.596 281.059C144.837 281.059 153.633 283.415 161.446 287.918C160.664 292.8 160.252 297.804 160.252 302.903C160.252 328.607 170.579 351.94 187.296 368.984C172.518 371.573 158.767 377.176 146.693 385.13H135.992C135.859 385.127 135.729 385.11 135.596 385.11C106.909 385.11 83.571 361.772 83.571 333.085C83.57 304.397 106.909 281.059 135.596 281.059ZM108.149 415.129H116.341C104.695 432.377 97.889 453.148 97.889 475.479V481.125H30.944C36.797 443.783 69.189 415.129 108.149 415.129ZM127.889 475.479C127.889 450.224 139.945 427.743 158.593 413.453C159.962 412.745 161.213 411.842 162.296 410.765C174.779 402.306 189.827 397.359 206.009 397.359H240.808V481.125H127.888L127.889 475.479ZM383.729 481.125H270.809V397.359H305.608C348.684 397.359 383.729 432.404 383.729 475.48V481.125ZM413.729 481.125V475.479C413.729 453.147 406.923 432.376 395.277 415.129H403.851C442.81 415.129 475.203 443.783 481.056 481.125H413.729Z" fill="#398C6D"/>
</svg>
