<svg width="419" height="512" viewBox="0 0 419 512" fill="none" xmlns="http://www.w3.org/2000/svg">
<path d="M417.782 314.086L372.375 198.561C371.092 114.165 314.028 43.124 236.707 21.176V15C236.707 6.716 229.991 0 221.707 0H151.338C143.054 0 136.338 6.716 136.338 15V21.002C57.802 42.983 0 115.555 0 201.458C0 261.089 28.101 316.814 75.56 352.109V497C75.56 505.284 82.276 512 90.56 512H281.118C289.402 512 296.118 505.284 296.118 497V449.82H317.462C324.524 449.82 331.261 448.404 337.419 445.855C339.39 446.165 341.408 446.329 343.464 446.329H372.542C393.945 446.329 411.358 428.916 411.358 407.513V394.553C411.358 373.15 393.945 355.737 372.542 355.737H370.018V340.653L406.383 334.354C410.825 333.584 414.686 330.857 416.897 326.927C419.106 322.998 419.432 318.282 417.782 314.086ZM166.339 45.439C172.844 44.604 179.472 44.174 186.199 44.174C193.15 44.174 199.995 44.64 206.708 45.531V165.136H166.339V45.439ZM186.523 195.135C226.487 195.135 259.001 227.833 259.001 268.025C259.001 308.217 226.488 340.914 186.523 340.914C146.559 340.914 114.045 308.217 114.045 268.025C114.045 227.833 146.559 195.135 186.523 195.135ZM281.117 419.821C272.833 419.82 266.117 426.536 266.117 434.82V482H105.559V344.373C105.559 339.403 103.097 334.756 98.986 331.964C55.789 302.63 30 253.843 30 201.458C30 132.279 74.585 73.391 136.339 52.391V178.346C105.153 196.008 84.046 229.586 84.046 268.025C84.046 324.758 130.018 370.914 186.524 370.914C212.051 370.914 235.427 361.493 253.387 345.933L305.563 386.203C304.971 388.894 304.649 391.686 304.649 394.553V407.513C304.649 411.815 305.363 415.95 306.661 419.821H281.117ZM372.541 385.737C377.403 385.736 381.357 389.691 381.357 394.553V407.513C381.357 412.374 377.402 416.329 372.541 416.329H343.463C338.602 416.329 334.647 412.374 334.647 407.513V394.553C334.647 389.692 338.602 385.737 343.463 385.737H372.541ZM352.457 313.247C345.268 314.493 340.017 320.73 340.017 328.027V355.897C333.761 356.45 327.93 358.492 322.876 361.668L273 323.173C283.126 307.223 289.001 288.3 289.001 268.024C289.001 229.585 267.893 196.007 236.708 178.345V52.617C298.125 73.807 342.398 132.523 342.398 201.458C342.398 203.336 342.751 205.197 343.438 206.945L383.131 307.934L352.457 313.247Z" fill="#398C6D"/>
<path d="M186.523 217.841C158.851 217.841 136.338 240.354 136.338 268.026C136.338 295.698 158.851 318.211 186.523 318.211C214.195 318.211 236.708 295.698 236.708 268.026C236.708 240.354 214.195 217.841 186.523 217.841ZM186.523 288.21C175.393 288.21 166.338 279.155 166.338 268.025C166.338 256.895 175.393 247.84 186.523 247.84C197.653 247.84 206.708 256.895 206.708 268.025C206.708 279.155 197.653 288.21 186.523 288.21Z" fill="#398C6D"/>
</svg>
