<svg width="40" height="52" viewBox="0 0 40 52" fill="none" xmlns="http://www.w3.org/2000/svg">
<path d="M9.52323 2.56135C5.12123 5.11167 1.97212 9.23026 0.656649 14.1575C-0.6591 19.0847 0.0163954 24.2314 2.55768 28.6491C5.94727 34.5405 12.2675 38.2004 19.0526 38.2004C21.195 38.2004 23.3207 37.8304 25.3359 37.1202L33.8963 52L40 48.4634L31.441 33.5862C34.3322 31.1037 36.4136 27.8113 37.4198 24.043C38.7353 19.1158 38.0598 13.9693 35.5185 9.55138C32.1292 3.65996 25.8087 0 19.0239 0C15.7005 0 12.4152 0.885566 9.52323 2.56135ZM29.4148 13.088C31.015 15.8695 31.4402 19.1101 30.6119 22.2124C29.7836 25.3147 27.8008 27.9078 25.0292 29.5137C23.2074 30.5693 21.1406 31.1272 19.0526 31.1272C14.7778 31.1272 10.7961 28.8225 8.66166 25.1125C7.06145 22.331 6.6363 19.0906 7.46488 15.988C8.29318 12.8857 10.276 10.2927 13.0476 8.68647C14.8691 7.63115 16.9359 7.07321 19.0239 7.07321C23.299 7.07321 27.2803 9.37795 29.4148 13.088Z" fill="#4D4D4D"/>
</svg>
